# Blender v2.77 (sub 0) OBJ File: ''
# www.blender.org
mtllib beerBottle.mtl
o Cylinder
v 0.000000 -0.431240 -0.290231
v 0.000000 0.084135 -0.296666
v 0.111067 -0.431240 -0.268138
v 0.113529 0.084135 -0.274083
v 0.205224 -0.431240 -0.205224
v 0.209774 0.084135 -0.209774
v 0.268138 -0.431240 -0.111067
v 0.274083 0.084135 -0.113529
v 0.290231 -0.431240 0.000000
v 0.296666 0.084135 0.000000
v 0.268138 -0.431240 0.111067
v 0.274083 0.084135 0.113529
v 0.205224 -0.431240 0.205224
v 0.209774 0.084135 0.209774
v 0.111067 -0.431240 0.268138
v 0.113529 0.084135 0.274083
v 0.000000 -0.431240 0.290231
v 0.000000 0.084135 0.296666
v -0.111066 -0.431240 0.268138
v -0.113529 0.084135 0.274083
v -0.205224 -0.431240 0.205224
v -0.209774 0.084135 0.209774
v -0.268138 -0.431240 0.111067
v -0.274083 0.084135 0.113529
v -0.290231 -0.431240 -0.000000
v -0.296666 0.084135 -0.000000
v -0.268138 -0.431240 -0.111067
v -0.274083 0.084135 -0.113529
v -0.205224 -0.431240 -0.205224
v -0.209774 0.084135 -0.209774
v -0.111066 -0.431240 -0.268138
v -0.113529 0.084135 -0.274083
v 0.101328 0.183890 -0.244628
v 0.000000 0.183890 -0.264783
v 0.187230 0.183890 -0.187230
v 0.244628 0.183890 -0.101328
v 0.264783 0.183890 0.000000
v 0.244628 0.183890 0.101328
v 0.187230 0.183890 0.187230
v 0.101328 0.183890 0.244628
v 0.000000 0.183890 0.264783
v -0.101328 0.183890 0.244628
v -0.187230 0.183890 0.187230
v -0.244628 0.183890 0.101328
v -0.264783 0.183890 -0.000000
v -0.244628 0.183890 -0.101328
v -0.187230 0.183890 -0.187230
v -0.101328 0.183890 -0.244628
v 0.061919 0.400159 -0.149486
v 0.000000 0.400159 -0.161802
v 0.114411 0.400159 -0.114411
v 0.149486 0.400159 -0.061919
v 0.161802 0.400159 0.000000
v 0.149486 0.400159 0.061919
v 0.114411 0.400159 0.114411
v 0.061919 0.400159 0.149486
v 0.000000 0.400159 0.161802
v -0.061919 0.400159 0.149486
v -0.114411 0.400159 0.114411
v -0.149485 0.400159 0.061919
v -0.161802 0.400159 -0.000000
v -0.149485 0.400159 -0.061919
v -0.114411 0.400159 -0.114411
v -0.061919 0.400159 -0.149486
v 0.041466 0.892611 -0.100107
v 0.000000 0.892611 -0.108355
v 0.076619 0.892611 -0.076619
v 0.100107 0.892611 -0.041466
v 0.108355 0.892611 -0.000000
v 0.100107 0.892611 0.041466
v 0.076619 0.892611 0.076619
v 0.041466 0.892611 0.100107
v 0.000000 0.892611 0.108355
v -0.041466 0.892611 0.100107
v -0.076619 0.892611 0.076619
v -0.100107 0.892611 0.041466
v -0.108355 0.892611 -0.000000
v -0.100107 0.892611 -0.041466
v -0.076618 0.892611 -0.076619
v -0.041466 0.892611 -0.100107
v 0.047057 0.923737 -0.113605
v 0.000000 0.923737 -0.122965
v 0.086949 0.923737 -0.086949
v 0.113605 0.923737 -0.047057
v 0.122965 0.923737 -0.000000
v 0.113605 0.923737 0.047057
v 0.086949 0.923737 0.086949
v 0.047057 0.923737 0.113605
v 0.000000 0.923737 0.122965
v -0.047056 0.923737 0.113605
v -0.086949 0.923737 0.086949
v -0.113604 0.923737 0.047057
v -0.122965 0.923737 -0.000000
v -0.113604 0.923737 -0.047057
v -0.086949 0.923737 -0.086949
v -0.047056 0.923737 -0.113605
v 0.037811 0.954489 -0.091284
v 0.000000 0.954489 -0.098806
v 0.069866 0.954489 -0.069866
v 0.091285 0.954489 -0.037811
v 0.098806 0.954489 -0.000000
v 0.091285 0.954489 0.037811
v 0.069866 0.954489 0.069866
v 0.037811 0.954489 0.091284
v 0.000000 0.954489 0.098806
v -0.037811 0.954489 0.091284
v -0.069866 0.954489 0.069866
v -0.091284 0.954489 0.037811
v -0.098805 0.954489 -0.000000
v -0.091284 0.954489 -0.037811
v -0.069866 0.954489 -0.069866
v -0.037811 0.954489 -0.091285
v 0.000000 -0.873538 -0.280752
v 0.107439 -0.873538 -0.259381
v 0.198521 -0.873538 -0.198521
v 0.259381 -0.873538 -0.107439
v 0.280752 -0.873538 0.000000
v 0.259381 -0.873538 0.107439
v 0.198521 -0.873538 0.198521
v 0.107439 -0.873538 0.259381
v 0.000000 -0.873538 0.280752
v -0.107439 -0.873538 0.259381
v -0.198521 -0.873538 0.198521
v -0.259381 -0.873538 0.107439
v -0.280752 -0.873538 -0.000000
v -0.259381 -0.873538 -0.107439
v -0.198521 -0.873538 -0.198521
v -0.107439 -0.873538 -0.259381
v 0.000000 -0.901663 -0.290747
v 0.111264 -0.901663 -0.268615
v 0.205589 -0.901663 -0.205589
v 0.268615 -0.901663 -0.111264
v 0.290747 -0.901663 0.000000
v 0.268615 -0.901663 0.111264
v 0.205589 -0.901663 0.205589
v 0.111264 -0.901663 0.268615
v 0.000000 -0.901663 0.290747
v -0.111264 -0.901663 0.268615
v -0.205589 -0.901663 0.205589
v -0.268615 -0.901663 0.111264
v -0.290747 -0.901663 -0.000000
v -0.268615 -0.901663 -0.111264
v -0.205589 -0.901663 -0.205589
v -0.111264 -0.901663 -0.268615
v 0.000000 -0.950404 -0.290747
v 0.111264 -0.950404 -0.268615
v 0.205589 -0.950404 -0.205589
v 0.268615 -0.950404 -0.111264
v 0.290747 -0.950404 0.000000
v 0.268615 -0.950404 0.111264
v 0.205589 -0.950404 0.205589
v 0.111264 -0.950404 0.268615
v 0.000000 -0.950404 0.290747
v -0.111264 -0.950404 0.268615
v -0.205589 -0.950404 0.205589
v -0.268615 -0.950404 0.111264
v -0.290747 -0.950404 -0.000000
v -0.268615 -0.950404 -0.111264
v -0.205589 -0.950404 -0.205589
v -0.111264 -0.950404 -0.268615
v 0.000000 -0.982149 -0.260588
v 0.099723 -0.982149 -0.240752
v 0.184264 -0.982149 -0.184263
v 0.240752 -0.982149 -0.099723
v 0.260588 -0.982149 0.000000
v 0.240752 -0.982149 0.099723
v 0.184264 -0.982149 0.184263
v 0.099723 -0.982149 0.240752
v 0.000000 -0.982149 0.260588
v -0.099723 -0.982149 0.240752
v -0.184263 -0.982149 0.184264
v -0.240752 -0.982149 0.099723
v -0.260588 -0.982149 -0.000000
v -0.240752 -0.982149 -0.099723
v -0.184263 -0.982149 -0.184264
v -0.099722 -0.982149 -0.240752
vt 0.9414 0.2889
vt 0.9414 0.5454
vt 0.8832 0.5454
vt 0.8832 0.2889
vt 0.8249 0.5454
vt 0.8249 0.2889
vt 0.7667 0.5454
vt 0.7667 0.2889
vt 0.7085 0.5454
vt 0.7085 0.2889
vt 0.6503 0.5454
vt 0.6503 0.2889
vt 0.5920 0.5454
vt 0.5920 0.2889
vt 0.5338 0.5454
vt 0.5338 0.2889
vt 0.4756 0.5454
vt 0.4756 0.2889
vt 0.4174 0.5454
vt 0.4174 0.2889
vt 0.3591 0.5454
vt 0.3591 0.2889
vt 0.3009 0.5454
vt 0.3009 0.2889
vt 0.2427 0.5454
vt 0.2427 0.2889
vt 0.1845 0.5454
vt 0.1845 0.2889
vt 0.1262 0.5454
vt 0.1262 0.2889
vt 0.1845 0.5950
vt 0.1262 0.5950
vt 0.0680 0.5454
vt 0.0680 0.2889
vt 0.0098 0.5454
vt 0.0098 0.2889
vt 0.8249 0.0688
vt 0.8832 0.0688
vt 0.4174 0.5950
vt 0.4756 0.5950
vt 0.4756 0.7026
vt 0.4174 0.7026
vt 0.8832 0.5950
vt 0.8249 0.5950
vt 0.5920 0.5950
vt 0.5338 0.5950
vt 0.3009 0.5950
vt 0.2427 0.5950
vt 0.7085 0.5950
vt 0.6503 0.5950
vt 0.3591 0.5950
vt 0.0680 0.5950
vt 0.7667 0.5950
vt 0.9414 0.5950
vt 0.0098 0.5950
vt 0.1262 0.7026
vt 0.1845 0.7026
vt 0.1845 0.9476
vt 0.1262 0.9476
vt 0.8832 0.7026
vt 0.8249 0.7026
vt 0.3591 0.7026
vt 0.7667 0.7026
vt 0.3009 0.7026
vt 0.7085 0.7026
vt 0.2427 0.7026
vt 0.6503 0.7026
vt 0.5920 0.7026
vt 0.5338 0.7026
vt 0.0680 0.7026
vt 0.9414 0.7026
vt 0.9996 0.5950
vt 0.9996 0.7026
vt 0.7085 0.9476
vt 0.7667 0.9476
vt 0.7667 0.9631
vt 0.7085 0.9631
vt 0.5920 0.9476
vt 0.5338 0.9476
vt 0.0680 0.9476
vt 0.4756 0.9476
vt 0.9414 0.9476
vt 0.8832 0.9476
vt 0.9996 0.9476
vt 0.4174 0.9476
vt 0.8249 0.9476
vt 0.3591 0.9476
vt 0.3009 0.9476
vt 0.2427 0.9476
vt 0.6503 0.9476
vt 0.4174 0.9631
vt 0.4756 0.9631
vt 0.4756 0.9784
vt 0.4174 0.9784
vt 0.3009 0.9631
vt 0.2427 0.9631
vt 0.6503 0.9631
vt 0.1845 0.9631
vt 0.5920 0.9631
vt 0.1262 0.9631
vt 0.5338 0.9631
vt 0.0680 0.9631
vt 0.9414 0.9631
vt 0.8832 0.9631
vt 0.9996 0.9631
vt 0.8249 0.9631
vt 0.3591 0.9631
vt 0.8832 0.9784
vt 0.9414 0.9784
vt 0.9996 0.9784
vt 1.0578 0.9784
vt 1.1161 0.9784
vt 1.1743 0.9784
vt 1.2325 0.9784
vt 1.2907 0.9784
vt 1.3490 0.9784
vt 0.5338 0.9784
vt 0.5920 0.9784
vt 0.6503 0.9784
vt 0.7085 0.9784
vt 0.7667 0.9784
vt 0.8249 0.9784
vt 0.3591 0.9784
vt 0.3009 0.9784
vt 0.2427 0.9784
vt 0.1845 0.9784
vt 0.1262 0.9784
vt 0.0680 0.9784
vt 0.3009 0.0688
vt 0.2427 0.0688
vt 0.2427 0.0548
vt 0.3009 0.0548
vt 0.5338 0.0688
vt 0.5920 0.0688
vt 0.6503 0.0688
vt 0.7085 0.0688
vt 0.3591 0.0688
vt 0.4174 0.0688
vt 0.0680 0.0688
vt 0.1262 0.0688
vt 0.7667 0.0688
vt 0.4756 0.0688
vt 0.9414 0.0688
vt 0.1845 0.0688
vt 0.0098 0.0688
vt 0.8832 0.0548
vt 0.8249 0.0548
vt 0.8249 0.0306
vt 0.8832 0.0306
vt 0.6503 0.0548
vt 0.7085 0.0548
vt 0.1845 0.0548
vt 0.5920 0.0548
vt 0.1262 0.0548
vt 0.5338 0.0548
vt 0.0680 0.0548
vt 0.4756 0.0548
vt 0.9414 0.0548
vt 0.0098 0.0548
vt 0.4174 0.0548
vt 0.3591 0.0548
vt 0.7667 0.0548
vt 0.5920 0.0306
vt 0.5338 0.0306
vt 0.5338 0.0148
vt 0.5920 0.0148
vt 0.3591 0.0306
vt 0.4174 0.0306
vt 0.7667 0.0306
vt 0.3009 0.0306
vt 0.7085 0.0306
vt 0.2427 0.0306
vt 0.6503 0.0306
vt 0.1845 0.0306
vt 0.1262 0.0306
vt 0.0680 0.0306
vt 0.4756 0.0306
vt 0.9414 0.0306
vt 0.0098 0.0306
vt 0.9414 0.0148
vt 0.8832 0.0148
vt 0.8249 0.0148
vt 0.7667 0.0148
vt 0.7085 0.0148
vt 0.6503 0.0148
vt 0.4756 0.0148
vt 0.4174 0.0148
vt 1.2907 0.0148
vt 1.2325 0.0148
vt 1.1743 0.0148
vt 1.1161 0.0148
vt 1.0578 0.0148
vt 0.9996 0.0148
vt 0.0680 0.0148
vt 0.1262 0.0148
vt 0.0098 0.0148
vt 0.3591 0.0148
vt 0.3009 0.0148
vt 0.2427 0.0148
vt 0.1845 0.0148
vt 0.9996 0.2889
vt 1.0578 0.2889
vt 1.1161 0.2889
vt 1.1743 0.2889
vt 1.2325 0.2889
vt 1.2907 0.2889
vn -0.0000 -0.0125 -0.9999
vn 0.0000 0.1451 -0.9894
vn 0.3786 0.1451 -0.9141
vn 0.3827 -0.0125 -0.9238
vn 0.6996 0.1451 -0.6996
vn 0.7071 -0.0125 -0.7071
vn 0.9141 0.1451 -0.3786
vn 0.9238 -0.0125 -0.3827
vn 0.9894 0.1451 0.0000
vn 0.9999 -0.0125 -0.0000
vn 0.9141 0.1451 0.3786
vn 0.9238 -0.0125 0.3827
vn 0.6996 0.1451 0.6996
vn 0.7071 -0.0125 0.7071
vn 0.3786 0.1451 0.9141
vn 0.3827 -0.0125 0.9238
vn 0.0000 0.1451 0.9894
vn 0.0000 -0.0125 0.9999
vn -0.3786 0.1451 0.9141
vn -0.3827 -0.0125 0.9238
vn -0.6996 0.1451 0.6996
vn -0.7071 -0.0125 0.7071
vn -0.9141 0.1451 0.3786
vn -0.9238 -0.0125 0.3827
vn -0.9894 0.1451 0.0000
vn -0.9999 -0.0125 -0.0000
vn -0.9141 0.1451 -0.3786
vn -0.9238 -0.0125 -0.3827
vn -0.6996 0.1451 -0.6996
vn -0.7071 -0.0125 -0.7071
vn -0.8601 0.3652 -0.3562
vn -0.6583 0.3652 -0.6583
vn -0.3786 0.1451 -0.9141
vn -0.3827 -0.0125 -0.9238
vn 0.3826 -0.0214 -0.9237
vn 0.7069 -0.0214 -0.7069
vn 0.6976 0.1630 -0.6976
vn 0.3775 0.1630 -0.9115
vn -0.3562 0.3652 0.8601
vn 0.0000 0.3652 0.9309
vn 0.0000 0.2784 0.9604
vn -0.3675 0.2784 0.8874
vn 0.3562 0.3652 -0.8601
vn 0.6583 0.3652 -0.6583
vn 0.6583 0.3652 0.6583
vn 0.3562 0.3652 0.8601
vn -0.8601 0.3652 0.3562
vn -0.9309 0.3652 0.0000
vn 0.9309 0.3652 0.0000
vn 0.8601 0.3652 0.3562
vn -0.6583 0.3652 0.6583
vn -0.3562 0.3652 -0.8601
vn 0.8601 0.3652 -0.3562
vn 0.0000 0.3652 -0.9309
vn -0.6791 0.2784 -0.6791
vn -0.8874 0.2784 -0.3675
vn -0.9185 0.1079 -0.3804
vn -0.7030 0.1079 -0.7030
vn 0.3675 0.2784 -0.8874
vn 0.6791 0.2784 -0.6791
vn -0.6791 0.2784 0.6791
vn 0.8874 0.2784 -0.3675
vn -0.8874 0.2784 0.3675
vn 0.9604 0.2784 0.0000
vn -0.9604 0.2784 0.0000
vn 0.8874 0.2784 0.3675
vn 0.6791 0.2784 0.6791
vn 0.3675 0.2784 0.8874
vn -0.3675 0.2784 -0.8874
vn 0.0000 0.2784 -0.9604
vn 0.9052 -0.4249 -0.0000
vn 0.8363 -0.4249 -0.3464
vn 0.7030 0.1079 0.7030
vn 0.3804 0.1079 0.9185
vn -0.3804 0.1079 -0.9185
vn 0.0000 0.1079 0.9942
vn 0.0000 0.1079 -0.9942
vn 0.3804 0.1079 -0.9185
vn -0.3804 0.1079 0.9185
vn 0.7030 0.1079 -0.7030
vn -0.7030 0.1079 0.7030
vn 0.9185 0.1079 -0.3804
vn -0.9185 0.1079 0.3804
vn 0.9942 0.1079 0.0000
vn -0.9942 0.1079 -0.0000
vn 0.9185 0.1079 0.3804
vn -0.3009 0.6178 0.7265
vn -0.0000 0.6178 0.7864
vn -0.9052 -0.4249 -0.0000
vn -0.8363 -0.4249 0.3464
vn 0.8363 -0.4249 0.3464
vn -0.8363 -0.4249 -0.3464
vn 0.6401 -0.4249 0.6401
vn -0.6401 -0.4249 -0.6401
vn 0.3464 -0.4249 0.8363
vn -0.3464 -0.4249 -0.8363
vn -0.0000 -0.4249 0.9052
vn 0.3464 -0.4249 -0.8363
vn -0.0000 -0.4249 -0.9052
vn -0.3464 -0.4249 0.8363
vn 0.6401 -0.4249 -0.6401
vn -0.6401 -0.4249 0.6401
vn 0.0000 1.0000 -0.0000
vn 0.5560 0.6178 -0.5560
vn 0.3009 0.6178 -0.7265
vn -0.5560 0.6178 0.5560
vn 0.7265 0.6178 -0.3009
vn -0.7265 0.6178 0.3009
vn 0.7864 0.6178 -0.0000
vn -0.7864 0.6178 -0.0000
vn 0.7265 0.6178 0.3009
vn -0.7265 0.6178 -0.3009
vn 0.5560 0.6178 0.5560
vn -0.5560 0.6178 -0.5560
vn 0.3009 0.6178 0.7265
vn -0.3009 0.6178 -0.7265
vn 0.0000 0.6178 -0.7864
vn -0.9115 0.1630 0.3775
vn -0.9866 0.1630 0.0000
vn -0.9860 0.1664 0.0000
vn -0.9110 0.1664 0.3773
vn 0.7069 -0.0214 0.7069
vn 0.3826 -0.0214 0.9237
vn 0.3775 0.1630 0.9115
vn 0.6976 0.1630 0.6976
vn -0.9237 -0.0214 0.3826
vn -0.9998 -0.0214 -0.0000
vn 0.9998 -0.0214 -0.0000
vn 0.9237 -0.0214 0.3826
vn 0.9115 0.1630 0.3775
vn 0.9866 0.1630 0.0000
vn -0.3826 -0.0214 0.9237
vn -0.7069 -0.0214 0.7069
vn -0.6976 0.1630 0.6976
vn -0.3775 0.1630 0.9115
vn -0.7069 -0.0214 -0.7069
vn -0.3826 -0.0214 -0.9237
vn -0.3775 0.1630 -0.9115
vn -0.6976 0.1630 -0.6976
vn 0.9237 -0.0214 -0.3826
vn 0.9115 0.1630 -0.3775
vn 0.0000 -0.0214 0.9998
vn 0.0000 0.1630 0.9866
vn -0.0000 -0.0214 -0.9998
vn 0.0000 0.1630 -0.9866
vn -0.9237 -0.0214 -0.3826
vn -0.9115 0.1630 -0.3775
vn 0.3773 0.1664 -0.9110
vn 0.6972 0.1664 -0.6972
vn 0.7071 0.0000 -0.7071
vn 0.3827 0.0000 -0.9239
vn 0.9110 0.1664 0.3773
vn 0.9860 0.1664 0.0000
vn -0.9110 0.1664 -0.3773
vn 0.6972 0.1664 0.6972
vn -0.6972 0.1664 -0.6972
vn 0.3773 0.1664 0.9110
vn -0.3773 0.1664 -0.9110
vn 0.0000 0.1664 0.9860
vn 0.0000 0.1664 -0.9860
vn -0.3773 0.1664 0.9110
vn -0.6972 0.1664 0.6972
vn 0.9110 0.1664 -0.3773
vn 0.5126 -0.6888 0.5126
vn 0.2774 -0.6888 0.6698
vn -0.7071 0.0000 0.7071
vn -0.3827 0.0000 0.9239
vn 0.9239 0.0000 -0.3827
vn -0.9239 0.0000 0.3827
vn 1.0000 0.0000 -0.0000
vn -1.0000 0.0000 -0.0000
vn 0.9239 0.0000 0.3827
vn -0.9239 0.0000 -0.3827
vn 0.7071 0.0000 0.7071
vn -0.7071 0.0000 -0.7071
vn 0.3827 0.0000 0.9239
vn -0.3827 0.0000 -0.9239
vn 0.0000 0.0000 1.0000
vn 0.0000 0.0000 -1.0000
vn 0.0000 -1.0000 0.0000
vn -0.5126 -0.6888 -0.5126
vn -0.2774 -0.6888 -0.6698
vn 0.0000 -0.6888 0.7250
vn 0.0000 -0.6888 -0.7250
vn 0.2774 -0.6888 -0.6698
vn -0.2774 -0.6888 0.6698
vn 0.5126 -0.6888 -0.5126
vn -0.5126 -0.6888 0.5126
vn 0.6698 -0.6888 -0.2774
vn -0.6698 -0.6888 0.2774
vn 0.7250 -0.6888 -0.0000
vn -0.7250 -0.6888 0.0000
vn 0.6698 -0.6888 0.2774
vn -0.6698 -0.6888 -0.2774
usemtl None
s 1
f 1/1/1 2/2/2 4/3/3 3/4/4
f 3/4/4 4/3/3 6/5/5 5/6/6
f 5/6/6 6/5/5 8/7/7 7/8/8
f 7/8/8 8/7/7 10/9/9 9/10/10
f 9/10/10 10/9/9 12/11/11 11/12/12
f 11/12/12 12/11/11 14/13/13 13/14/14
f 13/14/14 14/13/13 16/15/15 15/16/16
f 15/16/16 16/15/15 18/17/17 17/18/18
f 17/18/18 18/17/17 20/19/19 19/20/20
f 19/20/20 20/19/19 22/21/21 21/22/22
f 21/22/22 22/21/21 24/23/23 23/24/24
f 23/24/24 24/23/23 26/25/25 25/26/26
f 25/26/26 26/25/25 28/27/27 27/28/28
f 27/28/28 28/27/27 30/29/29 29/30/30
f 30/29/29 28/27/27 46/31/31 47/32/32
f 29/30/30 30/29/29 32/33/33 31/34/34
f 31/34/34 32/33/33 2/35/2 1/36/1
f 3/4/35 5/6/36 115/37/37 114/38/38
f 42/39/39 41/40/40 57/41/41 58/42/42
f 6/5/5 4/3/3 33/43/43 35/44/44
f 16/15/15 14/13/13 39/45/45 40/46/46
f 26/25/25 24/23/23 44/47/47 45/48/48
f 12/11/11 10/9/9 37/49/49 38/50/50
f 22/21/21 20/19/19 42/39/39 43/51/51
f 32/33/33 30/29/29 47/32/32 48/52/52
f 8/7/7 6/5/5 35/44/44 36/53/53
f 18/17/17 16/15/15 40/46/46 41/40/40
f 4/3/3 2/2/2 34/54/54 33/43/43
f 28/27/27 26/25/25 45/48/48 46/31/31
f 14/13/13 12/11/11 38/50/50 39/45/45
f 24/23/23 22/21/21 43/51/51 44/47/47
f 2/35/2 32/33/33 48/52/52 34/55/54
f 10/9/9 8/7/7 36/53/53 37/49/49
f 20/19/19 18/17/17 41/40/40 42/39/39
f 63/56/55 62/57/56 78/58/57 79/59/58
f 35/44/44 33/43/43 49/60/59 51/61/60
f 43/51/51 42/39/39 58/42/42 59/62/61
f 36/53/53 35/44/44 51/61/60 52/63/62
f 44/47/47 43/51/51 59/62/61 60/64/63
f 37/49/49 36/53/53 52/63/62 53/65/64
f 45/48/48 44/47/47 60/64/63 61/66/65
f 38/50/50 37/49/49 53/65/64 54/67/66
f 46/31/31 45/48/48 61/66/65 62/57/56
f 39/45/45 38/50/50 54/67/66 55/68/67
f 47/32/32 46/31/31 62/57/56 63/56/55
f 40/46/46 39/45/45 55/68/67 56/69/68
f 48/52/52 47/32/32 63/56/55 64/70/69
f 41/40/40 40/46/46 56/69/68 57/41/41
f 33/43/43 34/54/54 50/71/70 49/60/59
f 34/54/54 48/72/52 64/73/69 50/71/70
f 69/74/71 68/75/72 84/76/72 85/77/71
f 56/69/68 55/68/67 71/78/73 72/79/74
f 64/70/69 63/56/55 79/59/58 80/80/75
f 57/41/41 56/69/68 72/79/74 73/81/76
f 49/60/59 50/71/70 66/82/77 65/83/78
f 50/71/70 64/73/69 80/84/75 66/82/77
f 58/42/42 57/41/41 73/81/76 74/85/79
f 51/61/60 49/60/59 65/83/78 67/86/80
f 59/62/61 58/42/42 74/85/79 75/87/81
f 52/63/62 51/61/60 67/86/80 68/75/82
f 60/64/63 59/62/61 75/87/81 76/88/83
f 53/65/64 52/63/62 68/75/82 69/74/84
f 61/66/65 60/64/63 76/88/83 77/89/85
f 54/67/66 53/65/64 69/74/84 70/90/86
f 62/57/56 61/66/65 77/89/85 78/58/57
f 55/68/67 54/67/66 70/90/86 71/78/73
f 90/91/87 89/92/88 105/93/88 106/94/87
f 77/89/89 76/88/90 92/95/90 93/96/89
f 70/90/91 69/74/71 85/77/71 86/97/91
f 78/58/92 77/89/89 93/96/89 94/98/92
f 71/78/93 70/90/91 86/97/91 87/99/93
f 79/59/94 78/58/92 94/98/92 95/100/94
f 72/79/95 71/78/93 87/99/93 88/101/95
f 80/80/96 79/59/94 95/100/94 96/102/96
f 73/81/97 72/79/95 88/101/95 89/92/97
f 65/83/98 66/82/99 82/103/99 81/104/98
f 66/82/99 80/84/96 96/105/96 82/103/99
f 74/85/100 73/81/97 89/92/97 90/91/100
f 67/86/101 65/83/98 81/104/98 83/106/101
f 75/87/102 74/85/100 90/91/100 91/107/102
f 68/75/72 67/86/101 83/106/101 84/76/72
f 76/88/90 75/87/102 91/107/102 92/95/90
f 97/108/103 98/109/103 112/110/103 111/111/103 110/112/103 109/113/103 108/114/103 107/115/103 106/116/103 105/93/103 104/117/103 103/118/103 102/119/103 101/120/103 100/121/103 99/122/103
f 83/106/104 81/104/105 97/108/105 99/122/104
f 91/107/106 90/91/87 106/94/87 107/123/106
f 84/76/107 83/106/104 99/122/104 100/121/107
f 92/95/108 91/107/106 107/123/106 108/124/108
f 85/77/109 84/76/107 100/121/107 101/120/109
f 93/96/110 92/95/108 108/124/108 109/125/110
f 86/97/111 85/77/109 101/120/109 102/119/111
f 94/98/112 93/96/110 109/125/110 110/126/112
f 87/99/113 86/97/111 102/119/111 103/118/113
f 95/100/114 94/98/112 110/126/112 111/127/114
f 88/101/115 87/99/113 103/118/113 104/117/115
f 96/102/116 95/100/114 111/127/114 112/128/116
f 89/92/88 88/101/115 104/117/115 105/93/88
f 81/104/105 82/103/117 98/109/117 97/108/105
f 82/103/117 96/105/116 112/110/116 98/109/117
f 124/129/118 125/130/119 141/131/120 140/132/121
f 13/14/122 15/16/123 120/133/124 119/134/125
f 23/24/126 25/26/127 125/130/119 124/129/118
f 9/10/128 11/12/129 118/135/130 117/136/131
f 19/20/132 21/22/133 123/137/134 122/138/135
f 29/30/136 31/34/137 128/139/138 127/140/139
f 5/6/36 7/8/140 116/141/141 115/37/37
f 15/16/123 17/18/142 121/142/143 120/133/124
f 1/1/144 3/4/35 114/38/38 113/143/145
f 25/26/127 27/28/146 126/144/147 125/130/119
f 11/12/129 13/14/122 119/134/125 118/135/130
f 21/22/133 23/24/126 124/129/118 123/137/134
f 31/34/137 1/36/144 113/145/145 128/139/138
f 7/8/140 9/10/128 117/136/131 116/141/141
f 17/18/142 19/20/132 122/138/135 121/142/143
f 27/28/146 29/30/136 127/140/139 126/144/147
f 130/146/148 131/147/149 147/148/150 146/149/151
f 117/136/131 118/135/130 134/150/152 133/151/153
f 125/130/119 126/144/147 142/152/154 141/131/120
f 118/135/130 119/134/125 135/153/155 134/150/152
f 126/144/147 127/140/139 143/154/156 142/152/154
f 119/134/125 120/133/124 136/155/157 135/153/155
f 127/140/139 128/139/138 144/156/158 143/154/156
f 120/133/124 121/142/143 137/157/159 136/155/157
f 113/143/145 114/38/38 130/146/148 129/158/160
f 128/139/138 113/145/145 129/159/160 144/156/158
f 121/142/143 122/138/135 138/160/161 137/157/159
f 114/38/38 115/37/37 131/147/149 130/146/148
f 122/138/135 123/137/134 139/161/162 138/160/161
f 115/37/37 116/141/141 132/162/163 131/147/149
f 123/137/134 124/129/118 140/132/121 139/161/162
f 116/141/141 117/136/131 133/151/153 132/162/163
f 151/163/164 152/164/165 168/165/165 167/166/164
f 138/160/161 139/161/162 155/167/166 154/168/167
f 131/147/149 132/162/163 148/169/168 147/148/150
f 139/161/162 140/132/121 156/170/169 155/167/166
f 132/162/163 133/151/153 149/171/170 148/169/168
f 140/132/121 141/131/120 157/172/171 156/170/169
f 133/151/153 134/150/152 150/173/172 149/171/170
f 141/131/120 142/152/154 158/174/173 157/172/171
f 134/150/152 135/153/155 151/163/174 150/173/172
f 142/152/154 143/154/156 159/175/175 158/174/173
f 135/153/155 136/155/157 152/164/176 151/163/174
f 143/154/156 144/156/158 160/176/177 159/175/175
f 136/155/157 137/157/159 153/177/178 152/164/176
f 129/158/160 130/146/148 146/149/151 145/178/179
f 144/156/158 129/159/160 145/179/179 160/176/177
f 137/157/159 138/160/161 154/168/167 153/177/178
f 161/180/180 162/181/180 163/182/180 164/183/180 165/184/180 166/185/180 167/166/180 168/165/180 169/186/180 170/187/180 171/188/180 172/189/180 173/190/180 174/191/180 175/192/180 176/193/180
f 159/175/181 160/176/182 176/194/182 175/195/181
f 152/164/165 153/177/183 169/186/183 168/165/165
f 145/178/184 146/149/185 162/181/185 161/180/184
f 160/176/182 145/179/184 161/196/184 176/194/182
f 153/177/183 154/168/186 170/187/186 169/186/183
f 146/149/185 147/148/187 163/182/187 162/181/185
f 154/168/186 155/167/188 171/197/188 170/187/186
f 147/148/187 148/169/189 164/183/189 163/182/187
f 155/167/188 156/170/190 172/198/190 171/197/188
f 148/169/189 149/171/191 165/184/191 164/183/189
f 156/170/190 157/172/192 173/199/192 172/198/190
f 149/171/191 150/173/193 166/185/193 165/184/191
f 157/172/192 158/174/194 174/200/194 173/199/192
f 150/173/193 151/163/164 167/166/164 166/185/193
f 158/174/194 159/175/181 175/195/181 174/200/194
f 1/1/103 31/201/103 29/202/103 27/203/103 25/204/103 23/205/103 21/206/103 19/20/103 17/18/103 15/16/103 13/14/103 11/12/103 9/10/103 7/8/103 5/6/103 3/4/103
