# Blender v2.77 (sub 0) OBJ File: ''
# www.blender.org
mtllib pickHead.mtl
o Cylinder.000
v -0.358149 -1.000000 -0.980732
v -0.358149 1.000000 -0.980732
v -0.281253 0.490754 -1.267683
v -0.281253 -0.490754 -1.267683
v 0.357610 -1.000000 -0.980839
v 0.357610 1.000000 -0.980839
v 0.555342 1.000000 -0.831622
v 0.555342 -1.000000 -0.831622
v 0.831317 1.000000 -0.555799
v 0.831317 -1.000000 -0.555799
v 0.980732 1.000000 -0.195360
v 0.980732 -1.000000 -0.195360
v 0.980839 1.000000 0.194821
v 0.980839 -1.000000 0.194821
v 0.831622 1.000000 0.555342
v 0.831622 -1.000000 0.555342
v 0.555799 1.000000 0.831317
v 0.555799 -1.000000 0.831317
v 0.372682 1.000000 0.980732
v 0.372682 -1.000000 0.980732
v -0.372143 -1.000000 0.980839
v -0.372143 1.000000 0.980839
v -0.555342 1.000000 0.831622
v -0.555342 -1.000000 0.831622
v -0.831317 1.000000 0.555799
v -0.831317 -1.000000 0.555799
v -0.980732 1.000000 0.195360
v -0.980732 -1.000000 0.195360
v -0.980839 1.000000 -0.194821
v -0.980839 -1.000000 -0.194821
v -0.831622 1.000000 -0.555342
v -0.831622 -1.000000 -0.555342
v 0.686587 -1.000000 0.136375
v 0.686512 -1.000000 -0.136752
v -0.555798 1.000000 -0.831318
v -0.555798 -1.000000 -0.831318
v 0.136752 1.000000 0.686512
v -0.136375 1.000000 0.686587
v 0.686587 -0.700000 0.136375
v 0.686512 -0.700000 -0.136752
v -0.581922 1.000000 0.389059
v -0.388739 1.000000 0.582136
v -0.388739 0.700000 0.582136
v -0.581922 0.700000 0.389059
v -0.582135 -1.000000 -0.388740
v -0.686587 -1.000000 -0.136375
v 0.136375 -1.000000 -0.686587
v -0.136752 -1.000000 -0.686512
v 0.686512 1.000000 -0.136752
v 0.686587 1.000000 0.136375
v -0.686587 1.000000 -0.136375
v -0.582135 1.000000 -0.388740
v -0.136752 1.000000 -0.686512
v 0.136375 1.000000 -0.686587
v -0.388739 -1.000000 0.582136
v -0.136375 -1.000000 0.686587
v 0.582136 -1.000000 0.388739
v -0.389059 -1.000000 -0.581922
v 0.582136 1.000000 0.388739
v -0.389059 1.000000 -0.581922
v 0.388739 -1.000000 -0.582136
v -0.581922 -1.000000 0.389059
v 0.388739 1.000000 -0.582136
v 0.389059 -1.000000 0.581922
v 0.389059 1.000000 0.581922
v 0.581922 -1.000000 -0.389059
v -0.686512 -1.000000 0.136752
v 0.581922 1.000000 -0.389059
v -0.686512 1.000000 0.136752
v 0.136752 -1.000000 0.686512
v 0.136375 0.700000 -0.686587
v -0.136752 0.700000 -0.686512
v -0.389059 0.700000 -0.581922
v -0.582135 0.700000 -0.388740
v -0.686587 0.700000 -0.136375
v -0.686512 0.700000 0.136752
v -0.136375 0.700000 0.686587
v 0.136752 0.700000 0.686512
v 0.389059 0.700000 0.581922
v 0.582136 0.700000 0.388739
v 0.686587 0.700000 0.136375
v 0.686512 0.700000 -0.136752
v 0.581922 0.700000 -0.389059
v 0.388739 0.700000 -0.582136
v -0.136752 -0.700000 -0.686512
v 0.136375 -0.700000 -0.686587
v 0.388739 -0.700000 -0.582136
v 0.581922 -0.700000 -0.389059
v 0.582136 -0.700000 0.388739
v 0.389059 -0.700000 0.581922
v 0.136752 -0.700000 0.686512
v -0.136375 -0.700000 0.686587
v -0.388739 -0.700000 0.582136
v -0.581922 -0.700000 0.389059
v -0.686512 -0.700000 0.136752
v -0.686587 -0.700000 -0.136375
v -0.582135 -0.700000 -0.388740
v -0.389059 -0.700000 -0.581922
v -0.371970 -1.000000 1.385443
v -0.371970 1.000000 1.385443
v 0.372856 -1.000000 1.385337
v 0.372856 1.000000 1.385337
v 0.280587 -0.490754 -1.267767
v -0.281329 -0.490754 -1.775794
v 0.280511 -0.490754 -1.775878
v 0.280587 0.490754 -1.267767
v -0.281329 0.490754 -1.775794
v 0.280511 0.490754 -1.775878
v 0.514289 0.749209 -2.051606
v -0.515224 0.749209 -2.051487
v 0.514289 -0.749209 -2.051606
v -0.515224 -0.749209 -2.051487
v -0.515312 -0.749209 -2.502722
v 0.514201 -0.749209 -2.502840
v -0.307680 -0.462050 -2.734399
v 0.306513 -0.462050 -2.734491
v -0.515312 0.749209 -2.502722
v 0.514201 0.749209 -2.502840
v -0.307680 0.462051 -2.734399
v 0.306513 0.462051 -2.734491
v -0.374848 -0.644142 1.649086
v -0.374848 0.660905 1.649086
v 0.375728 -0.644142 1.648994
v 0.375764 -0.611598 2.220438
v -0.374813 -0.611598 2.220530
v 0.375728 0.660905 1.648994
v 0.375841 -0.611598 2.685733
v -0.374735 -0.611598 2.685825
v -0.374813 0.541325 2.220530
v 0.375764 0.541325 2.220438
v 0.375841 0.391850 2.685733
v 0.345006 0.230619 3.130283
v 0.345006 -0.650671 3.130283
v -0.374735 0.391850 2.685825
v -0.343648 -0.650671 3.130358
v 0.313160 -0.723302 3.558733
v -0.311658 -0.723302 3.558805
v -0.343648 0.230619 3.130358
v 0.313160 0.036382 3.558733
v -0.311658 0.036382 3.558805
v -0.250262 -0.303665 4.154113
v 0.252295 -0.303665 4.154062
v 0.252295 -0.891587 4.154062
v 0.206748 -0.784625 4.778989
v 0.206748 -1.142120 4.778989
v -0.250262 -0.891587 4.154113
v -0.204566 -1.142120 4.779023
v 0.129358 -1.292131 5.110734
v -0.127034 -1.292131 5.110752
v -0.204566 -0.784625 4.779023
v 0.129358 -1.116203 5.110734
v 0.074798 -1.230084 5.188625
v 0.074798 -1.306634 5.150839
v -0.127034 -1.116203 5.110752
v -0.072423 -1.230089 5.188633
v -0.072423 -1.306638 5.150846
vt 0.3309 0.8559
vt 0.3691 0.8559
vt 0.3691 0.8941
vt 0.3309 0.8941
vt 0.3309 0.8559
vt 0.3691 0.8559
vt 0.3691 0.8941
vt 0.3309 0.8941
vt 0.3309 0.8559
vt 0.3691 0.8559
vt 0.3691 0.8941
vt 0.3309 0.8941
vt 0.3309 0.8559
vt 0.3691 0.8559
vt 0.3691 0.8941
vt 0.3309 0.8941
vt 0.3309 0.8559
vt 0.3691 0.8559
vt 0.3691 0.8941
vt 0.3309 0.8941
vt 0.3309 0.8559
vt 0.3691 0.8559
vt 0.3691 0.8941
vt 0.3309 0.8941
vt 0.3309 0.8559
vt 0.3691 0.8559
vt 0.3691 0.8941
vt 0.3309 0.8941
vt 0.3309 0.8559
vt 0.3691 0.8559
vt 0.3691 0.8941
vt 0.3309 0.8941
vt 0.3309 0.8559
vt 0.3691 0.8559
vt 0.3691 0.8941
vt 0.3309 0.8941
vt 0.3309 0.8559
vt 0.3691 0.8559
vt 0.3691 0.8941
vt 0.3309 0.8941
vt 0.3309 0.8559
vt 0.3691 0.8559
vt 0.3691 0.8941
vt 0.3309 0.8941
vt 0.3309 0.8559
vt 0.3691 0.8559
vt 0.3691 0.8941
vt 0.3309 0.8941
vt 0.3309 0.8559
vt 0.3691 0.8559
vt 0.3691 0.8941
vt 0.3309 0.8941
vt 0.3691 0.8559
vt 0.3691 0.8941
vt 0.3309 0.8941
vt 0.3309 0.8559
vt 0.3691 0.8559
vt 0.3691 0.8941
vt 0.3309 0.8941
vt 0.3309 0.8559
vt 0.3691 0.8559
vt 0.3691 0.8941
vt 0.3309 0.8941
vt 0.3309 0.8559
vt 0.3691 0.8559
vt 0.3691 0.8941
vt 0.3309 0.8941
vt 0.3309 0.8559
vt 0.3691 0.8559
vt 0.3691 0.8941
vt 0.3309 0.8941
vt 0.3309 0.8559
vt 0.3691 0.8559
vt 0.3691 0.8941
vt 0.3309 0.8941
vt 0.3691 0.8559
vt 0.3691 0.8941
vt 0.3309 0.8941
vt 0.3691 0.8559
vt 0.3691 0.8941
vt 0.3309 0.8941
vt 0.3309 0.8559
vt 0.3691 0.8941
vt 0.3309 0.8941
vt 0.3309 0.8559
vt 0.3691 0.8941
vt 0.3309 0.8941
vt 0.3309 0.8559
vt 0.3691 0.8941
vt 0.3309 0.8941
vt 0.3691 0.8559
vt 0.3691 0.8941
vt 0.3309 0.8941
vt 0.3309 0.8559
vt 0.3691 0.8941
vt 0.3309 0.8941
vt 0.3691 0.8559
vt 0.3691 0.8941
vt 0.3309 0.8941
vt 0.3691 0.8559
vt 0.3691 0.8941
vt 0.3309 0.8941
vt 0.3309 0.8559
vt 0.3691 0.8941
vt 0.3309 0.8941
vt 0.3309 0.8559
vt 0.3691 0.8941
vt 0.3309 0.8941
vt 0.3691 0.8559
vt 0.3691 0.8941
vt 0.3309 0.8941
vt 0.3691 0.8559
vt 0.3691 0.8941
vt 0.3309 0.8941
vt 0.3309 0.8559
vt 0.3691 0.8941
vt 0.3309 0.8941
vt 0.3309 0.8559
vt 0.3691 0.8941
vt 0.3309 0.8941
vt 0.3691 0.8559
vt 0.3691 0.8941
vt 0.3309 0.8941
vt 0.3691 0.8559
vt 0.3691 0.8941
vt 0.3309 0.8941
vt 0.3309 0.8559
vt 0.3691 0.8941
vt 0.3309 0.8941
vt 0.3309 0.8559
vt 0.3691 0.8941
vt 0.3309 0.8941
vt 0.3691 0.8559
vt 0.3691 0.8941
vt 0.3309 0.8941
vt 0.3691 0.8559
vt 0.3691 0.8941
vt 0.3309 0.8941
vt 0.3309 0.8559
vt 0.3691 0.8941
vt 0.3309 0.8941
vt 0.3309 0.8559
vt 0.3691 0.8941
vt 0.3309 0.8941
vt 0.3691 0.8559
vt 0.3691 0.8941
vt 0.3309 0.8941
vt 0.3309 0.8559
vt 0.3691 0.8941
vt 0.3309 0.8941
vt 0.3691 0.8559
vt 0.3691 0.8941
vt 0.3309 0.8941
vt 0.3691 0.8559
vt 0.3691 0.8941
vt 0.3309 0.8941
vt 0.3309 0.8559
vt 0.3691 0.8941
vt 0.3309 0.8941
vt 0.3309 0.8559
vt 0.3691 0.8941
vt 0.3309 0.8941
vt 0.3309 0.8559
vt 0.3691 0.8559
vt 0.3691 0.8941
vt 0.3309 0.8941
vt 0.3500 0.8941
vt 0.3573 0.8926
vt 0.3635 0.8885
vt 0.3676 0.8823
vt 0.3691 0.8750
vt 0.3676 0.8677
vt 0.3635 0.8615
vt 0.3573 0.8574
vt 0.3500 0.8559
vt 0.3427 0.8574
vt 0.3365 0.8615
vt 0.3324 0.8677
vt 0.3309 0.8750
vt 0.3324 0.8823
vt 0.3365 0.8885
vt 0.3427 0.8926
vt 0.3500 0.8941
vt 0.3573 0.8926
vt 0.3635 0.8885
vt 0.3676 0.8823
vt 0.3691 0.8750
vt 0.3676 0.8677
vt 0.3635 0.8615
vt 0.3573 0.8574
vt 0.3500 0.8559
vt 0.3427 0.8574
vt 0.3365 0.8615
vt 0.3324 0.8677
vt 0.3309 0.8750
vt 0.3324 0.8823
vt 0.3365 0.8885
vt 0.3427 0.8926
vt 0.3309 0.8559
vt 0.3691 0.8559
vt 0.3691 0.8941
vt 0.3309 0.8941
vt 0.3309 0.8559
vt 0.3691 0.8559
vt 0.3691 0.8941
vt 0.3309 0.8941
vt 0.3309 0.8559
vt 0.3691 0.8559
vt 0.3691 0.8941
vt 0.3309 0.8941
vt 0.3309 0.8559
vt 0.3691 0.8559
vt 0.3691 0.8941
vt 0.3309 0.8941
vt 0.3309 0.8559
vt 0.3691 0.8559
vt 0.3691 0.8941
vt 0.3309 0.8941
vt 0.3309 0.8559
vt 0.3691 0.8559
vt 0.3691 0.8941
vt 0.3309 0.8941
vt 0.3309 0.8559
vt 0.3691 0.8559
vt 0.3691 0.8941
vt 0.3309 0.8941
vt 0.3309 0.8559
vt 0.3691 0.8559
vt 0.3691 0.8941
vt 0.3309 0.8941
vt 0.3309 0.8559
vt 0.3691 0.8559
vt 0.3691 0.8941
vt 0.3309 0.8941
vt 0.3309 0.8559
vt 0.3691 0.8559
vt 0.3691 0.8941
vt 0.3309 0.8941
vt 0.3309 0.8559
vt 0.3691 0.8559
vt 0.3691 0.8941
vt 0.3309 0.8941
vt 0.3309 0.8559
vt 0.3691 0.8559
vt 0.3691 0.8941
vt 0.3309 0.8941
vt 0.3309 0.8559
vt 0.3691 0.8559
vt 0.3691 0.8941
vt 0.3309 0.8941
vt 0.3309 0.8559
vt 0.3691 0.8559
vt 0.3691 0.8941
vt 0.3309 0.8941
vt 0.3309 0.8559
vt 0.3691 0.8559
vt 0.3691 0.8941
vt 0.3309 0.8941
vt 0.3309 0.8559
vt 0.3691 0.8559
vt 0.3691 0.8941
vt 0.3309 0.8941
vt 0.3309 0.8559
vt 0.3691 0.8559
vt 0.3691 0.8941
vt 0.3309 0.8941
vt 0.3309 0.8559
vt 0.3691 0.8559
vt 0.3691 0.8941
vt 0.3309 0.8941
vt 0.3309 0.8559
vt 0.3691 0.8559
vt 0.3691 0.8941
vt 0.3309 0.8941
vt 0.3309 0.8559
vt 0.3691 0.8559
vt 0.3691 0.8941
vt 0.3309 0.8941
vt 0.3309 0.8559
vt 0.3691 0.8559
vt 0.3691 0.8941
vt 0.3309 0.8941
vt 0.3309 0.8559
vt 0.3691 0.8559
vt 0.3691 0.8941
vt 0.3309 0.8941
vt 0.3309 0.8559
vt 0.3691 0.8559
vt 0.3691 0.8941
vt 0.3309 0.8941
vt 0.3309 0.8559
vt 0.3691 0.8559
vt 0.3691 0.8941
vt 0.3309 0.8941
vt 0.3309 0.8559
vt 0.3691 0.8559
vt 0.3691 0.8941
vt 0.3309 0.8941
vt 0.3309 0.8559
vt 0.3691 0.8559
vt 0.3691 0.8941
vt 0.3309 0.8941
vt 0.3309 0.8559
vt 0.3691 0.8559
vt 0.3691 0.8941
vt 0.3309 0.8941
vt 0.3309 0.8559
vt 0.3691 0.8559
vt 0.3691 0.8941
vt 0.3309 0.8941
vt 0.3309 0.8559
vt 0.3691 0.8559
vt 0.3691 0.8941
vt 0.3309 0.8941
vt 0.3309 0.8559
vt 0.3691 0.8559
vt 0.3691 0.8941
vt 0.3309 0.8941
vt 0.3691 0.8941
vt 0.3309 0.8941
vt 0.3691 0.8941
vt 0.3309 0.8941
vt 0.3691 0.8941
vt 0.3309 0.8941
vt 0.3691 0.8941
vt 0.3309 0.8941
vt 0.3691 0.8941
vt 0.3309 0.8941
vt 0.3691 0.8941
vt 0.3309 0.8941
vt 0.3691 0.8941
vt 0.3309 0.8941
vt 0.3691 0.8941
vt 0.3309 0.8941
vt 0.3309 0.8559
vt 0.3691 0.8559
vt 0.3691 0.8941
vt 0.3309 0.8941
vt 0.3691 0.8941
vt 0.3309 0.8941
vt 0.3691 0.8941
vt 0.3309 0.8941
vt 0.3691 0.8941
vt 0.3309 0.8941
vt 0.3309 0.8559
vt 0.3691 0.8559
vt 0.3691 0.8941
vt 0.3309 0.8941
vt 0.3309 0.8559
vt 0.3691 0.8559
vt 0.3691 0.8941
vt 0.3309 0.8941
vt 0.3309 0.8559
vt 0.3691 0.8559
vt 0.3691 0.8941
vt 0.3309 0.8941
vt 0.3309 0.8559
vt 0.3691 0.8559
vt 0.3691 0.8941
vt 0.3309 0.8941
vt 0.3309 0.8559
vt 0.3691 0.8559
vt 0.3691 0.8941
vt 0.3309 0.8941
vt 0.3309 0.8559
vt 0.3691 0.8559
vt 0.3691 0.8941
vt 0.3309 0.8941
vt 0.3309 0.8559
vt 0.3691 0.8559
vt 0.3691 0.8941
vt 0.3309 0.8941
vt 0.3309 0.8559
vt 0.3691 0.8559
vt 0.3691 0.8941
vt 0.3309 0.8941
vt 0.3309 0.8559
vt 0.3691 0.8559
vt 0.3691 0.8941
vt 0.3309 0.8941
vt 0.3309 0.8559
vt 0.3691 0.8559
vt 0.3691 0.8941
vt 0.3309 0.8941
vt 0.3309 0.8559
vt 0.3691 0.8559
vt 0.3691 0.8941
vt 0.3309 0.8941
vt 0.3309 0.8559
vt 0.3691 0.8559
vt 0.3691 0.8941
vt 0.3309 0.8941
vt 0.3309 0.8559
vt 0.3691 0.8559
vt 0.3691 0.8941
vt 0.3309 0.8559
vt 0.3691 0.8559
vt 0.3691 0.8941
vt 0.3309 0.8941
vt 0.3309 0.8559
vt 0.3691 0.8559
vt 0.3309 0.8941
vt 0.3309 0.8559
vt 0.3691 0.8559
vt 0.3691 0.8941
vt 0.3309 0.8941
vt 0.3309 0.8559
vt 0.3691 0.8559
vt 0.3691 0.8941
vt 0.3309 0.8941
vt 0.3309 0.8559
vt 0.3691 0.8559
vt 0.3691 0.8941
vt 0.3309 0.8941
vt 0.3309 0.8559
vt 0.3691 0.8559
vt 0.3691 0.8941
vt 0.3309 0.8941
vt 0.3309 0.8559
vt 0.3691 0.8559
vt 0.3691 0.8941
vt 0.3309 0.8941
vt 0.3309 0.8559
vt 0.3691 0.8559
vt 0.3691 0.8941
vt 0.3309 0.8941
vt 0.3309 0.8559
vt 0.3691 0.8559
vt 0.3691 0.8941
vt 0.3309 0.8941
vt 0.3309 0.8559
vt 0.3691 0.8559
vt 0.3691 0.8941
vt 0.3309 0.8941
vt 0.3309 0.8559
vt 0.3691 0.8559
vt 0.3691 0.8941
vt 0.3309 0.8941
vt 0.3309 0.8559
vt 0.3691 0.8559
vt 0.3691 0.8941
vt 0.3309 0.8941
vt 0.3309 0.8559
vt 0.3691 0.8559
vt 0.3691 0.8941
vt 0.3309 0.8941
vt 0.3309 0.8559
vt 0.3691 0.8559
vt 0.3691 0.8941
vt 0.3309 0.8941
vt 0.3309 0.8559
vt 0.3691 0.8559
vt 0.3691 0.8941
vt 0.3309 0.8941
vt 0.3309 0.8559
vt 0.3691 0.8559
vt 0.3691 0.8941
vt 0.3309 0.8941
vt 0.3309 0.8559
vt 0.3691 0.8559
vt 0.3691 0.8941
vt 0.3309 0.8941
vt 0.3309 0.8559
vt 0.3691 0.8559
vt 0.3691 0.8941
vt 0.3309 0.8941
vt 0.3309 0.8559
vt 0.3691 0.8559
vt 0.3691 0.8941
vt 0.3309 0.8941
vt 0.3309 0.8559
vt 0.3691 0.8559
vt 0.3691 0.8941
vt 0.3309 0.8941
vt 0.3309 0.8559
vt 0.3691 0.8559
vt 0.3691 0.8941
vt 0.3309 0.8941
vt 0.3309 0.8559
vt 0.3691 0.8559
vt 0.3691 0.8941
vt 0.3309 0.8941
vt 0.3309 0.8559
vt 0.3691 0.8559
vt 0.3691 0.8941
vt 0.3309 0.8941
vt 0.3309 0.8559
vt 0.3691 0.8559
vt 0.3691 0.8941
vt 0.3309 0.8941
vt 0.3309 0.8559
vt 0.3691 0.8559
vt 0.3691 0.8941
vt 0.3309 0.8941
vt 0.3309 0.8559
vt 0.3691 0.8559
vt 0.3691 0.8941
vt 0.3309 0.8941
vt 0.3309 0.8559
vt 0.3691 0.8559
vt 0.3691 0.8941
vt 0.3309 0.8941
vt 0.3309 0.8559
vt 0.3691 0.8559
vt 0.3691 0.8941
vt 0.3309 0.8941
vt 0.3309 0.8559
vt 0.3691 0.8559
vt 0.3691 0.8941
vt 0.3309 0.8941
vt 0.3309 0.8559
vt 0.3691 0.8559
vt 0.3691 0.8941
vt 0.3309 0.8941
vt 0.3309 0.8559
vt 0.3691 0.8559
vt 0.3691 0.8941
vt 0.3309 0.8941
vt 0.3309 0.8559
vt 0.3691 0.8559
vt 0.3691 0.8941
vt 0.3309 0.8941
vt 0.3309 0.8559
vt 0.3691 0.8559
vt 0.3691 0.8941
vt 0.3309 0.8941
vt 0.3309 0.8559
vt 0.3691 0.8559
vt 0.3691 0.8941
vt 0.3309 0.8941
vt 0.3309 0.8559
vt 0.3691 0.8559
vt 0.3309 0.8941
vt 0.3309 0.8559
vt 0.3691 0.8559
vt 0.3691 0.8941
vn -0.9659 0.0000 -0.2588
vn -0.9866 0.0000 -0.1629
vn 0.6024 0.0000 -0.7982
vn 0.6562 0.0000 -0.7546
vn 0.8313 0.0000 -0.5558
vn 0.9807 -0.0000 -0.1954
vn 0.9808 0.0000 0.1948
vn 0.8316 -0.0000 0.5553
vn 0.6706 -0.0000 0.7418
vn 0.6322 -0.0000 0.7748
vn -0.6315 -0.0000 0.7754
vn -0.6701 -0.0000 0.7423
vn -0.8313 -0.0000 0.5558
vn -0.9807 0.0000 0.1954
vn -0.9808 -0.0000 -0.1948
vn -0.8316 0.0000 -0.5553
vn 0.0000 -1.0000 0.0000
vn -0.6567 0.0000 -0.7541
vn -0.6030 0.0000 -0.7977
vn 0.0000 1.0000 0.0000
vn 0.5553 0.0000 -0.8316
vn -0.5558 0.0000 -0.8313
vn 0.1954 0.0000 0.9807
vn -0.1948 0.0000 0.9808
vn -0.1954 0.0000 -0.9807
vn 0.5558 0.0000 0.8313
vn -0.5553 0.0000 0.8316
vn 0.1948 0.0000 -0.9808
vn -1.0000 0.0000 0.0004
vn -1.0000 0.0000 -0.0028
vn -1.0000 0.0000 -0.0029
vn 1.0000 0.0000 -0.0004
vn 1.0000 0.0000 -0.0035
vn 0.0001 0.6138 0.7895
vn 0.0001 -0.5953 0.8035
vn 1.0000 0.0000 -0.0071
vn 1.0000 0.0000 -0.0068
vn -1.0000 0.0000 -0.0068
vn -1.0000 0.0000 -0.0070
vn -0.0001 -0.4909 -0.8712
vn 0.9658 0.0000 -0.2593
vn 0.9866 0.0000 -0.1633
vn -0.0001 0.4909 -0.8712
vn 0.0001 0.7296 0.6839
vn -1.0000 0.0000 0.0001
vn 1.0000 0.0000 -0.0001
vn 0.7627 0.0000 0.6467
vn 0.0001 -0.7296 0.6839
vn -0.7625 0.0000 0.6469
vn -0.0001 -0.6279 -0.7783
vn -1.0000 0.0000 0.0002
vn 1.0000 0.0000 -0.0002
vn -0.0001 0.0000 -1.0000
vn -0.7447 0.0000 -0.6674
vn -0.0001 0.6279 -0.7783
vn 0.7446 0.0000 -0.6675
vn 0.0000 -0.9984 0.0569
vn 0.0000 -0.9996 0.0284
vn -0.0000 -0.9991 -0.0428
vn 0.0000 0.9788 0.2048
vn 0.0000 0.9668 0.2557
vn 0.9994 0.0000 0.0355
vn 0.9996 0.0000 0.0272
vn 0.9975 0.0000 0.0710
vn 0.9974 0.0000 0.0719
vn 0.0000 0.9464 0.3231
vn -0.9994 0.0000 0.0359
vn -0.9996 0.0000 0.0276
vn -0.0000 -0.9921 -0.1256
vn -0.0000 -0.9762 -0.2170
vn -0.9974 0.0000 0.0723
vn -0.9974 0.0000 0.0715
vn 0.0000 0.9267 0.3757
vn 0.0000 0.8916 0.4529
vn 0.0000 0.8916 0.4528
vn 0.0001 0.8341 0.5516
vn 0.9965 0.0000 0.0837
vn 0.9960 0.0000 0.0898
vn -0.9959 0.0000 0.0904
vn -0.9964 0.0000 0.0842
vn 0.9964 0.0000 0.0843
vn 0.9957 0.0000 0.0929
vn 0.9935 0.0000 0.1138
vn 0.9855 0.0000 0.1698
vn -0.9964 0.0000 0.0848
vn -0.9956 0.0000 0.0936
vn -0.0000 -0.9475 -0.3199
vn -0.0000 -0.9207 -0.3903
vn -0.0000 -0.9196 -0.3928
vn -0.9854 0.0000 0.1701
vn -0.9935 0.0000 0.1141
vn 0.0001 0.7545 0.6562
vn 0.8771 -0.0577 0.4768
vn 0.9462 -0.0216 0.3228
vn 0.7793 -0.0928 0.6198
vn 0.0001 0.6518 0.7584
vn -0.8769 -0.0577 0.4772
vn -0.9461 -0.0216 0.3233
vn 0.0001 -0.4426 0.8967
vn -0.7790 -0.0928 0.6202
vn -0.0000 -0.9404 -0.3402
vn 0.0000 0.5645 0.8254
usemtl None.001
s 1
f 1/1/1 2/2/1 3/3/2 4/4/2
f 5/5/3 6/6/3 7/7/4 8/8/4
f 8/9/4 7/10/4 9/11/5 10/12/5
f 10/13/5 9/14/5 11/15/6 12/16/6
f 12/17/6 11/18/6 13/19/7 14/20/7
f 14/21/7 13/22/7 15/23/8 16/24/8
f 16/25/8 15/26/8 17/27/9 18/28/9
f 18/29/9 17/30/9 19/31/10 20/32/10
f 21/33/11 22/34/11 23/35/12 24/36/12
f 24/37/12 23/38/12 25/39/13 26/40/13
f 26/41/13 25/42/13 27/43/14 28/44/14
f 28/45/14 27/46/14 29/47/15 30/48/15
f 30/49/15 29/50/15 31/51/16 32/52/16
f 12/17/17 14/53/17 33/54/17 34/55/17
f 32/56/16 31/57/16 35/58/18 36/59/18
f 36/60/18 35/61/18 2/62/19 1/63/19
f 22/64/20 19/65/20 37/66/20 38/67/20
f 34/68/14 33/69/15 39/70/15 40/71/14
f 41/72/5 42/73/21 43/74/21 44/75/5
f 30/49/17 32/76/17 45/77/17 46/78/17
f 1/1/17 5/79/17 47/80/17 48/81/17
f 13/82/20 11/18/20 49/83/20 50/84/20
f 31/85/20 29/50/20 51/86/20 52/87/20
f 6/88/20 2/2/20 53/89/20 54/90/20
f 21/33/17 24/91/17 55/92/17 56/93/17
f 23/94/20 22/34/20 38/95/20 42/96/20
f 14/21/17 16/97/17 57/98/17 33/99/17
f 32/56/17 36/100/17 58/101/17 45/102/17
f 15/103/20 13/22/20 50/104/20 59/105/20
f 35/106/20 31/57/20 52/107/20 60/108/20
f 5/5/17 8/109/17 61/110/17 47/111/17
f 24/37/17 26/112/17 62/113/17 55/114/17
f 7/115/20 6/6/20 54/116/20 63/117/20
f 25/118/20 23/38/20 42/119/20 41/120/20
f 16/25/17 18/121/17 64/122/17 57/123/17
f 36/60/17 1/124/17 48/125/17 58/126/17
f 17/127/20 15/26/20 59/128/20 65/129/20
f 2/130/20 35/61/20 60/131/20 53/132/20
f 8/9/17 10/133/17 66/134/17 61/135/17
f 26/41/17 28/136/17 67/137/17 62/138/17
f 9/139/20 7/10/20 63/140/20 68/141/20
f 27/142/20 25/42/20 41/143/20 69/144/20
f 18/29/17 20/145/17 70/146/17 64/147/17
f 19/148/20 17/30/20 65/149/20 37/150/20
f 10/13/17 12/151/17 34/152/17 66/153/17
f 28/45/17 30/154/17 46/155/17 67/156/17
f 11/157/20 9/14/20 68/158/20 49/159/20
f 29/160/20 27/46/20 69/161/20 51/162/20
f 20/163/17 21/164/17 56/165/17 70/166/17
f 71/167/20 72/168/20 73/169/20 74/170/20 75/171/20 76/172/20 44/173/20 43/174/20 77/175/20 78/176/20 79/177/20 80/178/20 81/179/20 82/180/20 83/181/20 84/182/20
f 85/183/17 86/184/17 87/185/17 88/186/17 40/187/17 39/188/17 89/189/17 90/190/17 91/191/17 92/192/17 93/193/17 94/194/17 95/195/17 96/196/17 97/197/17 98/198/17
f 62/199/5 67/200/6 95/201/6 94/202/5
f 50/203/15 49/204/14 82/205/14 81/206/15
f 69/207/6 41/208/5 44/209/5 76/210/6
f 33/211/15 57/212/16 89/213/16 39/214/15
f 67/215/6 46/216/7 96/217/7 95/218/6
f 59/219/16 50/220/15 81/221/15 80/222/16
f 51/223/7 69/224/6 76/225/6 75/226/7
f 57/227/16 64/228/22 90/229/22 89/230/16
f 46/231/7 45/232/8 97/233/8 96/234/7
f 65/235/22 59/236/16 80/237/16 79/238/22
f 48/239/23 47/240/24 86/241/24 85/242/23
f 52/243/8 51/244/7 75/245/7 74/246/8
f 64/247/22 70/248/25 91/249/25 90/250/22
f 54/251/24 53/252/23 72/253/23 71/254/24
f 45/255/8 58/256/26 98/257/26 97/258/8
f 37/259/25 65/260/22 79/261/22 78/262/25
f 47/263/24 61/264/27 87/265/27 86/266/24
f 60/267/26 52/268/8 74/269/8 73/270/26
f 70/271/25 56/272/28 92/273/28 91/274/25
f 63/275/27 54/276/24 71/277/24 84/278/27
f 58/279/26 48/280/23 85/281/23 98/282/26
f 38/283/28 37/284/25 78/285/25 77/286/28
f 61/287/27 66/288/13 88/289/13 87/290/27
f 53/291/23 60/292/26 73/293/26 72/294/23
f 56/295/28 55/296/21 93/297/21 92/298/28
f 68/299/13 63/300/27 84/301/27 83/302/13
f 42/303/21 38/304/28 77/305/28 43/306/21
f 66/307/13 34/308/14 40/309/14 88/310/13
f 55/311/21 62/312/5 94/313/5 93/314/21
f 49/315/14 68/316/13 83/317/13 82/318/14
f 22/64/29 21/164/29 99/319/30 100/320/31
f 20/163/32 19/65/32 102/321/33 101/322/33
f 19/148/20 22/34/20 100/323/20 102/324/20
f 21/33/17 20/145/17 101/325/17 99/326/17
f 102/324/34 100/323/34 122/327/34 126/328/34
f 99/326/35 101/325/35 123/329/35 121/330/35
f 101/322/33 102/321/33 126/331/36 123/332/37
f 100/320/31 99/319/30 121/333/38 122/334/39
f 103/335/17 4/336/17 104/337/17 105/338/17
f 5/5/40 1/124/40 4/339/40 103/340/40
f 6/88/41 5/79/41 103/341/42 106/342/42
f 2/130/43 6/6/43 106/343/43 3/344/43
f 107/345/44 108/346/44 109/347/44 110/348/44
f 4/349/2 3/350/2 107/351/45 104/352/45
f 3/353/20 106/354/20 108/355/20 107/356/20
f 106/357/42 103/358/42 105/359/46 108/360/46
f 111/361/17 112/362/17 113/363/17 114/364/17
f 108/365/47 105/366/47 111/367/47 109/368/47
f 105/369/48 104/370/48 112/371/48 111/372/48
f 104/373/49 107/374/49 110/375/49 112/376/49
f 114/377/50 113/378/50 115/379/50 116/380/50
f 112/381/51 110/382/51 117/383/51 113/384/51
f 110/385/20 109/386/20 118/387/20 117/388/20
f 109/389/52 111/390/52 114/391/52 118/392/52
f 115/393/53 119/394/53 120/395/53 116/380/53
f 113/396/54 117/397/54 119/398/54 115/399/54
f 117/400/55 118/401/55 120/395/55 119/402/55
f 118/403/56 114/404/56 116/405/56 120/406/56
f 121/407/57 123/408/57 124/409/58 125/410/58
f 125/411/58 124/412/58 127/413/59 128/414/59
f 126/415/60 122/416/60 129/417/61 130/418/61
f 123/419/37 126/420/36 130/421/46 124/422/46
f 122/423/39 121/424/38 125/425/45 129/426/45
f 127/427/62 131/428/63 132/429/64 133/430/65
f 130/431/61 129/432/61 134/433/66 131/434/66
f 124/435/46 130/436/46 131/437/63 127/438/62
f 129/439/45 125/440/45 128/441/67 134/442/68
f 135/443/69 133/444/69 136/445/70 137/446/70
f 134/447/68 128/448/67 135/449/71 138/450/72
f 128/451/59 127/452/59 133/453/69 135/454/69
f 131/455/66 134/456/66 138/457/73 132/458/73
f 139/459/74 140/460/75 141/461/76 142/462/76
f 132/463/73 138/464/73 140/465/75 139/466/74
f 133/467/65 132/468/64 139/469/77 136/470/78
f 138/471/72 135/472/71 137/473/79 140/474/80
f 143/475/81 142/476/82 144/477/83 145/478/84
f 136/479/78 139/480/77 142/481/82 143/482/81
f 140/483/80 137/484/79 146/485/85 141/486/86
f 137/487/70 136/488/70 143/489/87 146/490/87
f 147/491/88 145/492/88 148/493/89 149/494/89
f 141/495/86 146/496/85 147/497/90 150/498/91
f 146/499/87 143/500/87 145/501/88 147/502/88
f 142/503/76 141/504/76 150/505/92 144/506/92
f 148/507/93 151/508/94 152/509/95 153/510/95
f 144/511/92 150/512/92 154/513/96 151/514/96
f 145/515/84 144/516/83 151/517/94 148/518/93
f 150/519/91 147/520/90 149/521/97 154/522/98
f 155/523/99 156/524/99 153/525/99 152/526/99
f 154/527/98 149/528/97 156/529/100 155/530/100
f 149/531/89 148/532/89 153/525/101 156/533/101
f 151/534/96 154/535/96 155/536/102 152/526/102
