# Blender v2.77 (sub 0) OBJ File: ''
# www.blender.org
mtllib pickDoubleHead.mtl
o Cylinder.004
v 0.980839 -1.000000 -0.194821
v 0.980839 1.000000 -0.194821
v 0.831622 -1.000000 -0.555342
v 0.831622 1.000000 -0.555342
v 0.555799 -1.000000 -0.831317
v 0.555799 1.000000 -0.831317
v 0.371184 -1.000000 -0.980732
v 0.371184 1.000000 -0.980732
v -0.370160 -1.000000 -0.980839
v -0.555342 -1.000000 -0.831622
v -0.555342 1.000000 -0.831622
v -0.370160 1.000000 -0.980839
v -0.831317 -1.000000 -0.555799
v -0.831317 1.000000 -0.555799
v -0.980732 -1.000000 -0.195360
v -0.980732 1.000000 -0.195360
v 0.686587 -1.000000 -0.136375
v -0.136375 1.000000 -0.686587
v 0.136752 1.000000 -0.686512
v -0.370160 -1.000000 -1.046263
v 0.371184 -1.000000 -1.046099
v 0.371184 1.000000 -1.046099
v -0.370160 1.000000 -1.046263
v 0.686587 -0.700000 -0.136375
v -0.581922 1.000000 -0.389059
v -0.581922 0.700000 -0.389059
v -0.388739 0.700000 -0.582136
v -0.388739 1.000000 -0.582136
v -0.136375 -1.000000 -0.686587
v -0.388739 -1.000000 -0.582136
v 0.582136 -1.000000 -0.388739
v 0.582136 1.000000 -0.388739
v 0.686587 1.000000 -0.136375
v -0.581922 -1.000000 -0.389059
v 0.389059 -1.000000 -0.581922
v 0.389059 1.000000 -0.581922
v -0.686512 -1.000000 -0.136752
v -0.686512 1.000000 -0.136752
v 0.136752 -1.000000 -0.686512
v 0.686587 0.700000 -0.136375
v 0.582136 0.700000 -0.388739
v 0.389059 0.700000 -0.581922
v 0.136752 0.700000 -0.686512
v -0.136375 0.700000 -0.686587
v -0.686512 0.700000 -0.136752
v -0.686512 -0.700000 -0.136752
v -0.581922 -0.700000 -0.389059
v -0.388739 -0.700000 -0.582136
v -0.136375 -0.700000 -0.686587
v 0.136752 -0.700000 -0.686512
v 0.389059 -0.700000 -0.581922
v 0.582136 -0.700000 -0.388739
v 0.399788 -0.424236 -1.123306
v 0.399788 0.485363 -1.120098
v -0.394880 0.485363 -1.120364
v -0.394880 -0.424236 -1.123573
v -0.099315 -0.615052 -6.355304
v 0.075455 -0.614933 -6.354936
v 0.075455 -0.675123 -6.188663
v -0.099315 -0.675241 -6.189030
v 0.185013 -0.571400 -5.549323
v 0.185013 -0.366420 -5.860647
v 0.295569 0.050032 -4.516063
v 0.252424 -0.135617 -5.230910
v -0.277881 -0.135606 -5.231610
v -0.320728 0.050041 -4.516643
v 0.252424 -0.519326 -4.997008
v -0.277881 -0.519315 -4.997709
v -0.320728 -0.472234 -4.252438
v -0.210590 -0.571364 -5.550075
v -0.385430 -0.452991 -3.469303
v 0.295569 -0.472244 -4.251859
v 0.360416 -0.452999 -3.468808
v -0.407886 0.443565 -1.886256
v -0.407886 -0.428385 -1.794503
v -0.210590 -0.366384 -5.861398
v 0.360416 0.242419 -3.564791
v 0.412646 -0.428390 -1.794159
v -0.414965 -0.426339 -2.553677
v 0.417717 -0.426346 -2.553246
v -0.412483 0.382778 -2.575588
v -0.385430 0.242427 -3.565285
v 0.412646 0.443560 -1.885913
v 0.420202 0.382771 -2.575158
v 0.980785 -1.000000 -0.000000
v 0.980785 1.000000 0.000000
v 0.686549 -1.000000 -0.000000
v 0.686549 -0.700000 -0.000000
v -0.980785 1.000000 0.000000
v -0.686549 1.000000 0.000000
v 0.686549 0.700000 0.000000
v -0.686549 0.700000 0.000000
v -0.686549 -0.700000 -0.000000
v -0.686549 -1.000000 -0.000000
v 0.686549 1.000000 0.000000
v -0.980785 -1.000000 -0.000000
v 0.980839 -1.000000 0.194821
v 0.980839 1.000000 0.194821
v 0.831622 -1.000000 0.555342
v 0.831622 1.000000 0.555342
v 0.555799 -1.000000 0.831317
v 0.555799 1.000000 0.831317
v 0.371184 -1.000000 0.980732
v 0.371184 1.000000 0.980732
v -0.370160 -1.000000 0.980839
v -0.555342 -1.000000 0.831622
v -0.555342 1.000000 0.831622
v -0.370160 1.000000 0.980839
v -0.831317 -1.000000 0.555799
v -0.831317 1.000000 0.555799
v -0.980732 -1.000000 0.195360
v -0.980732 1.000000 0.195360
v 0.686587 -1.000000 0.136375
v -0.136375 1.000000 0.686587
v 0.136752 1.000000 0.686512
v -0.370160 -1.000000 1.046263
v 0.371184 -1.000000 1.046099
v 0.371184 1.000000 1.046099
v -0.370160 1.000000 1.046263
v 0.686587 -0.700000 0.136375
v -0.581922 1.000000 0.389059
v -0.581922 0.700000 0.389059
v -0.388739 0.700000 0.582136
v -0.388739 1.000000 0.582136
v -0.136375 -1.000000 0.686587
v -0.388739 -1.000000 0.582136
v 0.582136 -1.000000 0.388739
v 0.582136 1.000000 0.388739
v 0.686587 1.000000 0.136375
v -0.581922 -1.000000 0.389059
v 0.389059 -1.000000 0.581922
v 0.389059 1.000000 0.581922
v -0.686512 -1.000000 0.136752
v -0.686512 1.000000 0.136752
v 0.136752 -1.000000 0.686512
v 0.686587 0.700000 0.136375
v 0.582136 0.700000 0.388739
v 0.389059 0.700000 0.581922
v 0.136752 0.700000 0.686512
v -0.136375 0.700000 0.686587
v -0.686512 0.700000 0.136752
v -0.686512 -0.700000 0.136752
v -0.581922 -0.700000 0.389059
v -0.388739 -0.700000 0.582136
v -0.136375 -0.700000 0.686587
v 0.136752 -0.700000 0.686512
v 0.389059 -0.700000 0.581922
v 0.582136 -0.700000 0.388739
v 0.399788 -0.424236 1.123306
v 0.399788 0.485363 1.120098
v -0.394880 0.485363 1.120364
v -0.394880 -0.424236 1.123573
v -0.099315 -0.615052 6.355304
v 0.075455 -0.614934 6.354936
v 0.075455 -0.675123 6.188663
v -0.099315 -0.675242 6.189030
v 0.185013 -0.571400 5.549323
v 0.185013 -0.366420 5.860647
v 0.295569 0.050032 4.516063
v 0.252424 -0.135617 5.230910
v -0.277881 -0.135606 5.231610
v -0.320728 0.050041 4.516643
v 0.252424 -0.519327 4.997008
v -0.277881 -0.519316 4.997709
v -0.320728 -0.472235 4.252438
v -0.210590 -0.571364 5.550075
v -0.385430 -0.452992 3.469303
v 0.295569 -0.472244 4.251859
v 0.360416 -0.453000 3.468808
v -0.407886 0.443565 1.886256
v -0.407886 -0.428385 1.794503
v -0.210590 -0.366384 5.861398
v 0.360416 0.242419 3.564791
v 0.412646 -0.428391 1.794159
v -0.414965 -0.426339 2.553677
v 0.417717 -0.426346 2.553246
v -0.412483 0.382778 2.575588
v -0.385430 0.242427 3.565285
v 0.412646 0.443560 1.885913
v 0.420202 0.382770 2.575158
vt 0.3479 0.8717
vt 0.3488 0.8736
vt 0.3652 0.8738
vt 0.3662 0.8719
vt 0.3501 0.8767
vt 0.3637 0.8770
vt 0.3510 0.8796
vt 0.3626 0.8798
vt 0.3516 0.8810
vt 0.3620 0.8812
vt 0.3510 0.8872
vt 0.3503 0.8885
vt 0.3624 0.8887
vt 0.3618 0.8873
vt 0.3493 0.8913
vt 0.3634 0.8915
vt 0.3476 0.8948
vt 0.3648 0.8948
vt 0.3446 0.8740
vt 0.3458 0.8752
vt 0.3642 0.8855
vt 0.3644 0.8830
vt 0.3544 0.8853
vt 0.3544 0.8826
vt 0.3589 0.8829
vt 0.3588 0.8855
vt 0.3419 0.8771
vt 0.3436 0.8777
vt 0.3659 0.8903
vt 0.3680 0.8887
vt 0.3669 0.8871
vt 0.3647 0.8880
vt 0.3488 0.8852
vt 0.3479 0.8876
vt 0.3476 0.8778
vt 0.3662 0.8783
vt 0.3680 0.8757
vt 0.3465 0.8900
vt 0.3486 0.8802
vt 0.3651 0.8807
vt 0.3446 0.8927
vt 0.3679 0.8929
vt 0.3490 0.8826
vt 0.3658 0.8967
vt 0.3692 0.8941
vt 0.3717 0.8777
vt 0.3704 0.8783
vt 0.3685 0.8799
vt 0.3673 0.8816
vt 0.3667 0.8834
vt 0.3665 0.8853
vt 0.3700 0.8902
vt 0.3717 0.8906
vt 0.3408 0.8902
vt 0.3422 0.8897
vt 0.3442 0.8882
vt 0.3456 0.8864
vt 0.3464 0.8846
vt 0.3467 0.8827
vt 0.3464 0.8810
vt 0.3455 0.8793
vt 0.3431 0.8939
vt 0.3693 0.8744
vt 0.3464 0.8968
vt 0.3544 0.8826
vt 0.3589 0.8829
vt 0.3588 0.8855
vt 0.3544 0.8853
vt 0.3564 0.8841
vt 0.3564 0.8841
vt 0.3564 0.8841
vt 0.3564 0.8841
vt 0.3564 0.8841
vt 0.3564 0.8841
vt 0.3565 0.8840
vt 0.3564 0.8841
vt 0.3564 0.8841
vt 0.3565 0.8841
vt 0.3564 0.8841
vt 0.3564 0.8841
vt 0.3564 0.8841
vt 0.3564 0.8841
vt 0.3564 0.8841
vt 0.3564 0.8840
vt 0.3563 0.8840
vt 0.3574 0.8847
vt 0.3555 0.8846
vt 0.3564 0.8841
vt 0.3566 0.8840
vt 0.3555 0.8834
vt 0.3561 0.8843
vt 0.3561 0.8838
vt 0.3570 0.8843
vt 0.3566 0.8842
vt 0.3576 0.8835
vt 0.3570 0.8838
vt 0.3652 0.8738
vt 0.3488 0.8736
vt 0.3637 0.8770
vt 0.3501 0.8767
vt 0.3626 0.8798
vt 0.3510 0.8796
vt 0.3620 0.8812
vt 0.3516 0.8810
vt 0.3510 0.8872
vt 0.3618 0.8873
vt 0.3624 0.8887
vt 0.3503 0.8885
vt 0.3634 0.8915
vt 0.3493 0.8913
vt 0.3648 0.8948
vt 0.3476 0.8948
vt 0.3458 0.8752
vt 0.3644 0.8830
vt 0.3642 0.8855
vt 0.3544 0.8826
vt 0.3544 0.8853
vt 0.3588 0.8855
vt 0.3589 0.8829
vt 0.3436 0.8777
vt 0.3659 0.8903
vt 0.3647 0.8880
vt 0.3669 0.8871
vt 0.3680 0.8887
vt 0.3479 0.8876
vt 0.3488 0.8852
vt 0.3476 0.8778
vt 0.3680 0.8757
vt 0.3662 0.8783
vt 0.3465 0.8900
vt 0.3486 0.8802
vt 0.3651 0.8807
vt 0.3446 0.8927
vt 0.3679 0.8929
vt 0.3490 0.8826
vt 0.3700 0.8902
vt 0.3665 0.8853
vt 0.3667 0.8834
vt 0.3673 0.8816
vt 0.3685 0.8799
vt 0.3704 0.8783
vt 0.3455 0.8793
vt 0.3464 0.8810
vt 0.3467 0.8827
vt 0.3464 0.8846
vt 0.3456 0.8864
vt 0.3442 0.8882
vt 0.3422 0.8897
vt 0.3589 0.8829
vt 0.3544 0.8826
vt 0.3544 0.8853
vt 0.3588 0.8855
vt 0.3564 0.8841
vt 0.3564 0.8841
vt 0.3564 0.8841
vt 0.3564 0.8841
vt 0.3564 0.8841
vt 0.3564 0.8841
vt 0.3565 0.8840
vt 0.3565 0.8841
vt 0.3564 0.8841
vt 0.3564 0.8841
vt 0.3564 0.8841
vt 0.3564 0.8841
vt 0.3564 0.8841
vt 0.3564 0.8841
vt 0.3564 0.8841
vt 0.3563 0.8840
vt 0.3564 0.8840
vt 0.3555 0.8846
vt 0.3574 0.8847
vt 0.3564 0.8841
vt 0.3566 0.8840
vt 0.3555 0.8834
vt 0.3561 0.8843
vt 0.3561 0.8838
vt 0.3570 0.8843
vt 0.3566 0.8842
vt 0.3576 0.8835
vt 0.3570 0.8838
vn 1.0000 -0.0000 0.0000
vn 0.9808 0.0000 -0.1948
vn 0.8316 0.0000 -0.5553
vn 0.6691 0.0000 -0.7431
vn 0.6291 0.0000 -0.7773
vn -0.6274 0.0000 -0.7787
vn -0.6681 0.0000 -0.7440
vn -0.8313 0.0000 -0.5558
vn -0.9807 0.0000 -0.1954
vn 0.0000 -1.0000 0.0000
vn 0.0000 1.0000 0.0000
vn 0.9996 -0.0000 0.0295
vn 0.9995 -0.0000 0.0316
vn -1.0000 0.0000 0.0000
vn -0.9996 -0.0000 0.0273
vn -0.9997 -0.0000 0.0255
vn -0.9808 -0.0000 0.1948
vn 0.8313 0.0000 0.5558
vn 0.5553 0.0000 0.8316
vn 0.9807 -0.0000 0.1954
vn -0.8316 -0.0000 0.5553
vn -0.5558 0.0000 0.8313
vn -0.1954 0.0000 0.9807
vn 0.1948 0.0000 0.9808
vn 0.9705 0.0001 0.2409
vn 0.9697 0.0000 0.2441
vn -0.9768 0.0001 0.2143
vn -0.9774 0.0001 0.2115
vn 0.0003 -0.1330 -0.9911
vn 0.0003 0.1424 -0.9898
vn 0.0014 -0.9403 -0.3404
vn 0.9882 -0.1168 -0.0993
vn 0.9689 -0.2163 -0.1201
vn 0.9780 -0.1761 -0.1118
vn 0.0002 0.9746 -0.2238
vn 0.0004 0.9553 -0.2957
vn 0.9965 -0.0496 -0.0678
vn 0.9951 -0.0623 -0.0765
vn -0.9978 -0.0261 -0.0614
vn -0.9951 -0.0621 -0.0763
vn -0.9965 -0.0494 -0.0675
vn -0.9976 -0.0243 -0.0652
vn -0.0001 -0.9970 0.0776
vn -0.0002 -0.9923 0.1241
vn -0.0002 -0.9923 0.1240
vn -0.0001 -0.9970 0.0775
vn -0.0000 -0.9996 0.0269
vn -0.0001 -0.9991 0.0430
vn -0.9999 0.0015 0.0129
vn -0.9999 0.0014 0.0134
vn -0.9775 -0.1783 -0.1130
vn -0.9881 -0.1174 -0.0996
vn 0.9977 -0.0133 -0.0660
vn 0.9976 -0.0244 -0.0655
vn 0.9977 -0.0262 -0.0617
vn 0.9977 -0.0137 -0.0663
vn -0.0000 -1.0000 0.0062
vn -0.0000 -1.0000 0.0017
vn 0.0007 0.9199 -0.3922
vn 0.0007 0.9198 -0.3923
vn -0.0002 -0.9871 0.1603
vn -0.0000 -0.9999 0.0131
vn -0.0000 -0.9999 0.0129
vn -1.0000 0.0007 -0.0098
vn -0.9987 -0.0107 -0.0503
vn -0.9987 -0.0102 -0.0492
vn -0.9999 0.0007 -0.0107
vn 0.0000 0.9975 -0.0713
vn 0.0001 0.9935 -0.1137
vn 0.0001 0.9935 -0.1140
vn 0.0008 0.8933 -0.4494
vn -0.9680 -0.2195 -0.1219
vn 0.0001 0.9858 -0.1682
vn 0.0001 0.9857 -0.1685
vn 0.0000 0.9985 -0.0545
vn 0.9999 0.0001 0.0136
vn 0.9999 -0.0000 0.0132
vn 0.9997 -0.0036 -0.0257
vn 0.9997 -0.0035 -0.0241
vn 0.9808 0.0000 0.1948
vn 0.8316 -0.0000 0.5553
vn 0.6691 -0.0000 0.7431
vn 0.6291 -0.0000 0.7773
vn -0.6274 -0.0000 0.7787
vn -0.6681 -0.0000 0.7440
vn -0.8313 -0.0000 0.5558
vn -0.9807 0.0000 0.1954
vn 0.9995 -0.0000 -0.0316
vn 0.9996 -0.0000 -0.0295
vn -0.9997 -0.0000 -0.0255
vn -0.9996 -0.0000 -0.0273
vn -0.9808 0.0000 -0.1948
vn 0.8313 0.0000 -0.5558
vn 0.5553 0.0000 -0.8316
vn 0.9807 -0.0000 -0.1954
vn -0.8316 0.0000 -0.5553
vn -0.5558 0.0000 -0.8313
vn -0.1954 0.0000 -0.9807
vn 0.1948 0.0000 -0.9808
vn 0.9697 0.0000 -0.2441
vn 0.9705 0.0001 -0.2409
vn -0.9774 0.0001 -0.2115
vn -0.9768 0.0001 -0.2143
vn 0.0003 -0.1330 0.9911
vn 0.0003 0.1424 0.9898
vn 0.0014 -0.9403 0.3404
vn 0.9882 -0.1168 0.0993
vn 0.9780 -0.1761 0.1118
vn 0.9689 -0.2163 0.1201
vn 0.0002 0.9746 0.2238
vn 0.0004 0.9553 0.2957
vn 0.9965 -0.0496 0.0678
vn 0.9951 -0.0623 0.0765
vn -0.9978 -0.0261 0.0614
vn -0.9976 -0.0243 0.0652
vn -0.9965 -0.0494 0.0675
vn -0.9951 -0.0621 0.0763
vn -0.0001 -0.9970 -0.0776
vn -0.0001 -0.9970 -0.0775
vn -0.0002 -0.9923 -0.1240
vn -0.0002 -0.9923 -0.1241
vn -0.0000 -0.9996 -0.0269
vn -0.0001 -0.9991 -0.0430
vn -0.9999 0.0014 -0.0134
vn -0.9999 0.0015 -0.0129
vn -0.9881 -0.1174 0.0996
vn -0.9775 -0.1783 0.1130
vn 0.9977 -0.0133 0.0660
vn 0.9977 -0.0137 0.0663
vn 0.9977 -0.0262 0.0617
vn 0.9976 -0.0244 0.0655
vn -0.0000 -1.0000 -0.0062
vn -0.0000 -1.0000 -0.0017
vn 0.0007 0.9198 0.3923
vn 0.0007 0.9199 0.3922
vn -0.0002 -0.9871 -0.1603
vn -0.0000 -0.9999 -0.0131
vn -0.0000 -0.9999 -0.0129
vn -1.0000 0.0007 0.0098
vn -0.9999 0.0007 0.0107
vn -0.9987 -0.0102 0.0492
vn -0.9987 -0.0107 0.0503
vn 0.0000 0.9975 0.0713
vn 0.0001 0.9935 0.1140
vn 0.0001 0.9935 0.1137
vn 0.0008 0.8933 0.4494
vn -0.9680 -0.2195 0.1219
vn 0.0001 0.9857 0.1685
vn 0.0001 0.9858 0.1682
vn 0.0000 0.9985 0.0545
vn 0.9999 -0.0000 -0.0132
vn 0.9999 0.0001 -0.0136
vn 0.9997 -0.0036 0.0257
vn 0.9997 -0.0035 0.0241
usemtl None.004
s 1
f 85/1/1 1/2/2 2/3/2 86/4/1
f 1/2/2 3/5/3 4/6/3 2/3/2
f 3/5/3 5/7/4 6/8/4 4/6/3
f 5/7/4 7/9/5 8/10/5 6/8/4
f 9/11/6 10/12/7 11/13/7 12/14/6
f 10/12/7 13/15/8 14/16/8 11/13/7
f 13/15/8 15/17/9 16/18/9 14/16/8
f 85/1/10 87/19/10 17/20/10 1/2/10
f 12/14/11 18/21/11 19/22/11 8/10/11
f 9/11/10 20/23/10 21/24/10 7/9/10
f 8/10/11 22/25/11 23/26/11 12/14/11
f 7/9/1 21/24/12 22/25/13 8/10/1
f 12/14/14 23/26/15 20/23/16 9/11/14
f 87/19/14 88/27/14 24/28/17 17/20/17
f 25/29/18 26/30/18 27/31/19 28/32/19
f 9/11/10 29/33/10 30/34/10 10/12/10
f 11/13/11 28/32/11 18/21/11 12/14/11
f 1/2/10 17/20/10 31/35/10 3/5/10
f 4/6/11 32/36/11 33/37/11 2/3/11
f 10/12/10 30/34/10 34/38/10 13/15/10
f 14/16/11 25/29/11 28/32/11 11/13/11
f 3/5/10 31/35/10 35/39/10 5/7/10
f 6/8/11 36/40/11 32/36/11 4/6/11
f 13/15/10 34/38/10 37/41/10 15/17/10
f 16/18/11 38/42/11 25/29/11 14/16/11
f 5/7/10 35/39/10 39/43/10 7/9/10
f 8/10/11 19/22/11 36/40/11 6/8/11
f 89/44/11 90/45/11 38/42/11 16/18/11
f 7/9/10 39/43/10 29/33/10 9/11/10
f 91/46/11 40/47/11 41/48/11 42/49/11 43/50/11 44/51/11 27/31/11 26/30/11 45/52/11 92/53/11
f 93/54/10 46/55/10 47/56/10 48/57/10 49/58/10 50/59/10 51/60/10 52/61/10 24/28/10 88/27/10
f 34/38/18 47/56/18 46/55/20 37/41/20
f 38/42/20 45/52/20 26/30/18 25/29/18
f 17/20/17 24/28/17 52/61/21 31/35/21
f 32/36/21 41/48/21 40/47/17 33/37/17
f 90/45/1 92/53/1 45/52/20 38/42/20
f 31/35/21 52/61/21 51/60/22 35/39/22
f 36/40/22 42/49/22 41/48/21 32/36/21
f 35/39/22 51/60/22 50/59/23 39/43/23
f 19/22/23 43/50/23 42/49/22 36/40/22
f 39/43/23 50/59/23 49/58/24 29/33/24
f 18/21/24 44/51/24 43/50/23 19/22/23
f 29/33/24 49/58/24 48/57/19 30/34/19
f 28/32/19 27/31/19 44/51/24 18/21/24
f 30/34/19 48/57/19 47/56/18 34/38/18
f 37/41/20 46/55/20 93/54/1 94/62/1
f 33/37/17 40/47/17 91/46/14 95/63/14
f 15/17/10 37/41/10 94/62/10 96/64/10
f 2/3/11 33/37/11 95/63/11 86/4/11
f 15/17/9 96/64/14 89/44/14 16/18/9
f 21/24/12 53/65/25 54/66/26 22/25/13
f 23/26/15 55/67/27 56/68/28 20/23/16
f 20/23/29 56/68/29 53/65/29 21/24/29
f 22/25/30 54/66/30 55/67/30 23/26/30
f 57/69/31 58/70/31 59/71/31 60/72/31
f 61/73/32 59/71/33 58/70/33 62/74/34
f 63/75/35 64/76/36 65/77/36 66/78/35
f 67/79/37 61/73/32 62/74/34 64/76/38
f 66/78/39 65/77/40 68/80/41 69/81/42
f 68/80/43 70/82/44 61/73/45 67/79/46
f 71/83/47 69/81/48 72/84/48 73/85/47
f 55/67/27 74/86/49 75/87/50 56/68/28
f 65/77/40 76/88/51 70/82/52 68/80/41
f 73/85/53 72/84/54 63/75/55 77/89/56
f 56/68/57 75/87/58 78/90/58 53/65/57
f 69/81/48 68/80/43 67/79/46 72/84/48
f 72/84/54 67/79/37 64/76/38 63/75/55
f 64/76/36 62/74/59 76/88/60 65/77/36
f 70/82/44 60/72/61 59/71/61 61/73/45
f 79/91/62 71/83/47 73/85/47 80/92/63
f 81/93/64 82/94/65 71/83/66 79/91/67
f 83/95/68 84/96/69 81/93/70 74/86/68
f 62/74/59 58/70/71 57/69/71 76/88/60
f 76/88/51 57/69/72 60/72/72 70/82/52
f 84/96/69 77/89/73 82/94/74 81/93/70
f 54/66/75 83/95/68 74/86/68 55/67/75
f 74/86/49 81/93/64 79/91/67 75/87/50
f 53/65/25 78/90/76 83/95/77 54/66/26
f 82/94/65 66/78/39 69/81/42 71/83/66
f 80/92/78 73/85/53 77/89/56 84/96/79
f 77/89/73 63/75/35 66/78/35 82/94/74
f 78/90/76 80/92/78 84/96/79 83/95/77
f 75/87/58 79/91/62 80/92/63 78/90/58
f 85/1/1 86/4/1 98/97/80 97/98/80
f 97/98/80 98/97/80 100/99/81 99/100/81
f 99/100/81 100/99/81 102/101/82 101/102/82
f 101/102/82 102/101/82 104/103/83 103/104/83
f 105/105/84 108/106/84 107/107/85 106/108/85
f 106/108/85 107/107/85 110/109/86 109/110/86
f 109/110/86 110/109/86 112/111/87 111/112/87
f 85/1/10 97/98/10 113/113/10 87/19/10
f 108/106/11 104/103/11 115/114/11 114/115/11
f 105/105/10 103/104/10 117/116/10 116/117/10
f 104/103/11 108/106/11 119/118/11 118/119/11
f 103/104/1 104/103/1 118/119/88 117/116/89
f 108/106/14 105/105/14 116/117/90 119/118/91
f 87/19/14 113/113/92 120/120/92 88/27/14
f 121/121/93 124/122/94 123/123/94 122/124/93
f 105/105/10 106/108/10 126/125/10 125/126/10
f 107/107/11 108/106/11 114/115/11 124/122/11
f 97/98/10 99/100/10 127/127/10 113/113/10
f 100/99/11 98/97/11 129/128/11 128/129/11
f 106/108/10 109/110/10 130/130/10 126/125/10
f 110/109/11 107/107/11 124/122/11 121/121/11
f 99/100/10 101/102/10 131/131/10 127/127/10
f 102/101/11 100/99/11 128/129/11 132/132/11
f 109/110/10 111/112/10 133/133/10 130/130/10
f 112/111/11 110/109/11 121/121/11 134/134/11
f 101/102/10 103/104/10 135/135/10 131/131/10
f 104/103/11 102/101/11 132/132/11 115/114/11
f 89/44/11 112/111/11 134/134/11 90/45/11
f 103/104/10 105/105/10 125/126/10 135/135/10
f 91/46/11 92/53/11 141/136/11 122/124/11 123/123/11 140/137/11 139/138/11 138/139/11 137/140/11 136/141/11
f 93/54/10 88/27/10 120/120/10 148/142/10 147/143/10 146/144/10 145/145/10 144/146/10 143/147/10 142/148/10
f 130/130/93 133/133/95 142/148/95 143/147/93
f 134/134/95 121/121/93 122/124/93 141/136/95
f 113/113/92 127/127/96 148/142/96 120/120/92
f 128/129/96 129/128/92 136/141/92 137/140/96
f 90/45/1 134/134/95 141/136/95 92/53/1
f 127/127/96 131/131/97 147/143/97 148/142/96
f 132/132/97 128/129/96 137/140/96 138/139/97
f 131/131/97 135/135/98 146/144/98 147/143/97
f 115/114/98 132/132/97 138/139/97 139/138/98
f 135/135/98 125/126/99 145/145/99 146/144/98
f 114/115/99 115/114/98 139/138/98 140/137/99
f 125/126/99 126/125/94 144/146/94 145/145/99
f 124/122/94 114/115/99 140/137/99 123/123/94
f 126/125/94 130/130/93 143/147/93 144/146/94
f 133/133/95 94/62/1 93/54/1 142/148/95
f 129/128/92 95/63/14 91/46/14 136/141/92
f 111/112/10 96/64/10 94/62/10 133/133/10
f 98/97/11 86/4/11 95/63/11 129/128/11
f 111/112/87 112/111/87 89/44/14 96/64/14
f 117/116/89 118/119/88 150/149/100 149/150/101
f 119/118/91 116/117/90 152/151/102 151/152/103
f 116/117/104 117/116/104 149/150/104 152/151/104
f 118/119/105 119/118/105 151/152/105 150/149/105
f 153/153/106 156/154/106 155/155/106 154/156/106
f 157/157/107 158/158/108 154/156/109 155/155/109
f 159/159/110 162/160/110 161/161/111 160/162/111
f 163/163/112 160/162/113 158/158/108 157/157/107
f 162/160/114 165/164/115 164/165/116 161/161/117
f 164/165/118 163/163/119 157/157/120 166/166/121
f 167/167/122 169/168/122 168/169/123 165/164/123
f 151/152/103 152/151/102 171/170/124 170/171/125
f 161/161/117 164/165/116 166/166/126 172/172/127
f 169/168/128 173/173/129 159/159/130 168/169/131
f 152/151/132 149/150/132 174/174/133 171/170/133
f 165/164/123 168/169/123 163/163/119 164/165/118
f 168/169/131 159/159/130 160/162/113 163/163/112
f 160/162/111 161/161/111 172/172/134 158/158/135
f 166/166/121 157/157/120 155/155/136 156/154/136
f 175/175/137 176/176/138 169/168/122 167/167/122
f 177/177/139 175/175/140 167/167/141 178/178/142
f 179/179/143 170/171/143 177/177/144 180/180/145
f 158/158/135 172/172/134 153/153/146 154/156/146
f 172/172/127 166/166/126 156/154/147 153/153/147
f 180/180/145 177/177/144 178/178/148 173/173/149
f 150/149/150 151/152/150 170/171/143 179/179/143
f 170/171/125 171/170/124 175/175/140 177/177/139
f 149/150/101 150/149/100 179/179/151 174/174/152
f 178/178/142 167/167/141 165/164/115 162/160/114
f 176/176/153 180/180/154 173/173/129 169/168/128
f 173/173/149 178/178/148 162/160/110 159/159/110
f 174/174/152 179/179/151 180/180/154 176/176/153
f 171/170/133 174/174/133 176/176/138 175/175/137
