# Blender v2.77 (sub 0) OBJ File: ''
# www.blender.org
mtllib rifleBullet.mtl
o Cylinder_Cylinder.000
v 0.000000 2.447743 0.955551
v -0.675677 2.447743 0.675677
v -0.955551 2.447743 0.000000
v -0.675677 2.812046 0.675677
v -0.955551 2.812046 0.000000
v -0.675677 2.447743 -0.675677
v 0.000000 2.447743 -0.955551
v 0.675677 2.447743 -0.675677
v 0.955551 2.447743 0.000000
v 0.675677 2.447743 0.675677
v 0.675677 2.812046 -0.675677
v 0.000000 2.812046 -0.955551
v 0.000000 3.276038 -0.890230
v 0.629488 3.276038 -0.629488
v 0.675677 2.812046 0.675677
v 0.000000 2.812046 0.955551
v 0.955551 2.812046 0.000000
v -0.675677 2.812046 -0.675677
v -0.629488 3.276038 -0.629488
v -0.890230 3.276038 0.000000
v -0.787864 3.668647 0.000000
v -0.557104 3.668647 -0.557104
v -0.629488 3.276038 0.629488
v 0.629488 3.276038 0.629488
v 0.000000 3.276038 0.890230
v 0.890230 3.276038 0.000000
v 0.787864 3.668647 0.000000
v 0.557104 3.668647 -0.557104
v 0.428370 4.025564 -0.428370
v 0.605806 4.025564 0.000000
v 0.000000 3.668647 0.787864
v -0.557104 3.668647 0.557104
v 0.557104 3.668647 0.557104
v 0.000000 3.668647 -0.787864
v 0.000000 4.025564 -0.605806
v -0.428370 4.025564 -0.428370
v -0.348527 4.168331 -0.348527
v 0.000000 4.168331 -0.492892
v -0.605806 4.025564 0.000000
v 0.000000 4.025564 0.605806
v -0.428370 4.025564 0.428370
v 0.428370 4.025564 0.428370
v 0.348527 4.168331 0.348527
v 0.492892 4.168331 0.000000
v 0.236865 4.328943 0.000000
v 0.167488 4.328943 0.167489
v -0.348527 4.168331 0.348527
v -0.492892 4.168331 0.000000
v 0.000000 4.168331 0.492892
v 0.348527 4.168331 -0.348527
v 0.167488 4.328943 -0.167489
v 0.000000 4.328943 -0.236865
v -0.167489 4.328943 -0.167489
v -0.236865 4.328943 0.000000
v -0.167489 4.328943 0.167489
v 0.000000 4.328943 0.236865
v 0.000000 -2.152257 0.955551
v -0.675677 -2.152257 0.675677
v -0.955551 -2.152257 0.000000
v -0.675677 -2.152257 -0.675677
v 0.000000 -2.152257 -0.955551
v 0.675677 -2.152257 -0.675677
v 0.955551 -2.152257 0.000000
v 0.675677 -2.152257 0.675677
vt 0.4027 0.9454
vt 0.4180 0.9301
vt 0.4220 0.9389
vt 0.4117 0.9489
vt 0.4358 0.9736
vt 0.4215 0.9734
vt 0.4244 0.9661
vt 0.4326 0.9664
vt 0.4397 0.9301
vt 0.4550 0.9454
vt 0.4462 0.9493
vt 0.4362 0.9391
vt 0.4550 0.9671
vt 0.4397 0.9824
vt 0.4460 0.9636
vt 0.4027 0.9671
vt 0.4116 0.9632
vt 0.4180 0.9824
vt 0.4188 0.9600
vt 0.4191 0.9518
vt 0.4231 0.9534
vt 0.4228 0.9583
vt 0.4251 0.9461
vt 0.4390 0.9525
vt 0.4334 0.9464
vt 0.4387 0.9607
vt 0.4347 0.9591
vt 0.4310 0.9623
vt 0.4299 0.9596
vt 0.4320 0.9579
vt 0.4317 0.9505
vt 0.4268 0.9502
vt 0.4350 0.9542
vt 0.4261 0.9620
vt 0.4272 0.9594
vt 0.4255 0.9573
vt 0.4265 0.9569
vt 0.4277 0.9584
vt 0.4258 0.9546
vt 0.4306 0.9531
vt 0.4279 0.9529
vt 0.4323 0.9552
vt 0.4313 0.9556
vt 0.4311 0.9575
vt 0.4298 0.9568
vt 0.4299 0.9560
vt 0.4282 0.9538
vt 0.4267 0.9550
vt 0.4301 0.9541
vt 0.4296 0.9587
vt 0.4291 0.9573
vt 0.4283 0.9572
vt 0.4278 0.9565
vt 0.4280 0.9557
vt 0.4286 0.9552
vt 0.4294 0.9553
vt 0.4397 0.9301
vt 0.4550 0.9454
vt 0.4027 0.9671
vt 0.4027 0.9454
vt 0.4180 0.9301
vt 0.4550 0.9671
vt 0.4180 0.9824
vt 0.4397 0.9824
vn -1.0000 0.0000 0.0000
vn -0.7071 0.0000 0.7071
vn -0.7054 0.0687 0.7054
vn -0.9976 0.0687 -0.0000
vn 0.7054 0.0687 -0.7054
vn 0.0000 0.0687 -0.9976
vn 0.0000 0.1935 -0.9811
vn 0.6937 0.1935 -0.6937
vn 0.0000 0.0000 1.0000
vn 0.7071 0.0000 0.7071
vn 0.7054 0.0687 0.7054
vn 0.0000 0.0687 0.9976
vn 1.0000 0.0000 0.0000
vn 0.7071 0.0000 -0.7071
vn 0.9976 0.0687 -0.0000
vn -0.7071 0.0000 -0.7071
vn -0.7054 0.0687 -0.7054
vn 0.0000 0.0000 -1.0000
vn -0.6937 0.1935 -0.6937
vn -0.9811 0.1935 0.0000
vn -0.9379 0.3469 0.0000
vn -0.6632 0.3469 -0.6632
vn -0.6937 0.1935 0.6937
vn 0.6937 0.1935 0.6937
vn 0.0000 0.1935 0.9811
vn 0.9811 0.1935 -0.0000
vn 0.9379 0.3469 -0.0000
vn 0.6632 0.3469 -0.6632
vn 0.5999 0.5293 -0.5999
vn 0.8485 0.5293 -0.0000
vn 0.0000 0.3469 0.9379
vn -0.6632 0.3469 0.6632
vn 0.6632 0.3469 0.6632
vn 0.0000 0.3469 -0.9379
vn 0.0000 0.5293 -0.8485
vn -0.5999 0.5293 -0.5999
vn -0.4876 0.7242 -0.4876
vn 0.0000 0.7242 -0.6896
vn -0.8485 0.5293 -0.0000
vn 0.0000 0.5293 0.8485
vn -0.5999 0.5293 0.5999
vn 0.5999 0.5293 0.5999
vn 0.4876 0.7242 0.4876
vn 0.6896 0.7242 -0.0000
vn 0.3376 0.9413 -0.0000
vn 0.2387 0.9413 0.2387
vn -0.4876 0.7242 0.4876
vn -0.6896 0.7242 0.0000
vn 0.0000 0.7242 0.6896
vn 0.4876 0.7242 -0.4876
vn 0.2387 0.9413 -0.2387
vn 0.0000 0.9413 -0.3376
vn -0.2387 0.9413 -0.2387
vn -0.3376 0.9413 0.0000
vn -0.2387 0.9413 0.2387
vn 0.0000 0.9413 0.3376
vn 0.0000 -1.0000 0.0000
usemtl None
s 1
f 3/1/1 2/2/2 4/3/3 5/4/4
f 11/5/5 12/6/6 13/7/7 14/8/8
f 1/9/9 10/10/10 15/11/11 16/12/12
f 9/13/13 8/14/14 11/5/5 17/15/15
f 6/16/16 3/1/1 5/4/4 18/17/17
f 2/2/2 1/9/9 16/12/12 4/3/3
f 10/10/10 9/13/13 17/15/15 15/11/11
f 8/14/14 7/18/18 12/6/6 11/5/5
f 7/18/18 6/16/16 18/17/17 12/6/6
f 19/19/19 20/20/20 21/21/21 22/22/22
f 12/6/6 18/17/17 19/19/19 13/7/7
f 5/4/4 4/3/3 23/23/23 20/20/20
f 16/12/12 15/11/11 24/24/24 25/25/25
f 17/15/15 11/5/5 14/8/8 26/26/26
f 18/17/17 5/4/4 20/20/20 19/19/19
f 4/3/3 16/12/12 25/25/25 23/23/23
f 15/11/11 17/15/15 26/26/26 24/24/24
f 27/27/27 28/28/28 29/29/29 30/30/30
f 23/23/23 25/25/25 31/31/31 32/32/32
f 24/24/24 26/26/26 27/27/27 33/33/33
f 14/8/8 13/7/7 34/34/34 28/28/28
f 13/7/7 19/19/19 22/22/22 34/34/34
f 20/20/20 23/23/23 32/32/32 21/21/21
f 25/25/25 24/24/24 33/33/33 31/31/31
f 26/26/26 14/8/8 28/28/28 27/27/27
f 35/35/35 36/36/36 37/37/37 38/38/38
f 22/22/22 21/21/21 39/39/39 36/36/36
f 32/32/32 31/31/31 40/40/40 41/41/41
f 33/33/33 27/27/27 30/30/30 42/42/42
f 28/28/28 34/34/34 35/35/35 29/29/29
f 34/34/34 22/22/22 36/36/36 35/35/35
f 21/21/21 32/32/32 41/41/41 39/39/39
f 31/31/31 33/33/33 42/42/42 40/40/40
f 43/43/43 44/44/44 45/45/45 46/46/46
f 39/39/39 41/41/41 47/47/47 48/48/48
f 40/40/40 42/42/42 43/43/43 49/49/49
f 30/30/30 29/29/29 50/50/50 44/44/44
f 36/36/36 39/39/39 48/48/48 37/37/37
f 41/41/41 40/40/40 49/49/49 47/47/47
f 42/42/42 30/30/30 44/44/44 43/43/43
f 29/29/29 35/35/35 38/38/38 50/50/50
f 51/51/51 52/52/52 53/53/53 54/54/54 55/55/55 56/56/56 46/46/46 45/45/45
f 50/50/50 38/38/38 52/52/52 51/51/51
f 38/38/38 37/37/37 53/53/53 52/52/52
f 48/48/48 47/47/47 55/55/55 54/54/54
f 49/49/49 43/43/43 46/46/46 56/56/56
f 44/44/44 50/50/50 51/51/51 45/45/45
f 37/37/37 48/48/48 54/54/54 53/53/53
f 47/47/47 49/49/49 56/56/56 55/55/55
f 10/10/10 1/9/9 57/57/9 64/58/10
f 3/1/1 6/16/16 60/59/16 59/60/1
f 2/2/2 3/1/1 59/60/1 58/61/2
f 9/13/13 10/10/10 64/58/10 63/62/13
f 6/16/16 7/18/18 61/63/18 60/59/16
f 8/14/14 9/13/13 63/62/13 62/64/14
f 1/9/9 2/2/2 58/61/2 57/57/9
f 7/18/18 8/14/14 62/64/14 61/63/18
f 64/58/57 57/57/57 58/61/57 59/60/57 60/59/57 61/63/57 62/64/57 63/62/57
