# Blender v2.77 (sub 0) OBJ File: 'building.blend'
# www.blender.org
mtllib saloonSign.mtl
o Cube.002_Cube.001
v 0.600000 2.500000 0.204577
v 0.600000 3.481778 0.204577
v 0.600000 2.500000 0.104577
v 0.600000 3.481778 0.104577
v 3.400000 2.500000 0.204577
v 3.400000 3.481778 0.204577
v 3.400000 2.500000 0.104577
v 3.400000 3.481778 0.104577
v 0.880000 3.500000 0.104577
v 1.160000 3.565342 0.104577
v 1.440000 3.731940 0.104577
v 1.720000 3.874739 0.104577
v 2.000000 3.917073 0.104577
v 2.280000 3.874739 0.104577
v 2.560000 3.731940 0.104577
v 2.840000 3.565342 0.104577
v 3.120000 3.500000 0.104577
v 3.120000 2.500000 0.104577
v 2.840000 2.500000 0.104577
v 2.560000 2.500000 0.104577
v 2.280000 2.500000 0.104577
v 2.000000 2.500000 0.104577
v 1.720000 2.500000 0.104577
v 1.440000 2.500000 0.104577
v 1.160000 2.500000 0.104577
v 0.880000 2.500000 0.104577
v 3.120000 3.500000 0.204577
v 2.840000 3.565342 0.204577
v 2.560000 3.731940 0.204577
v 2.280000 3.874739 0.204577
v 2.000000 3.917073 0.204577
v 1.720000 3.874739 0.204577
v 1.440000 3.731940 0.204577
v 1.160000 3.565342 0.204577
v 0.880000 3.500000 0.204577
v 0.880000 2.500000 0.204577
v 1.160000 2.500000 0.204577
v 1.440000 2.500000 0.204577
v 1.720000 2.500000 0.204577
v 2.000000 2.500000 0.204577
v 2.280000 2.500000 0.204577
v 2.560000 2.500000 0.204577
v 2.840000 2.500000 0.204577
v 3.120000 2.500000 0.204577
vt -0.0153 1.0196
vt -0.0153 1.0196
vt -0.0153 -0.0204
vt -0.0153 -0.0204
vt 0.9079 1.0191
vt 1.0104 1.0196
vt 1.0104 -0.0204
vt 0.9079 -0.0204
vt 1.0104 1.0196
vt 1.0104 -0.0204
vt 0.0873 1.0191
vt 0.0873 -0.0204
vt 0.9079 -0.0204
vt 0.0873 1.0191
vt 0.9079 1.0191
vt 0.8053 1.0191
vt 0.8053 1.0191
vt 0.7027 1.0209
vt 0.7027 1.0209
vt 0.6001 1.0206
vt 0.6001 1.0206
vt 0.4976 1.0193
vt 0.4976 1.0193
vt 0.3950 1.0206
vt 0.3950 1.0206
vt 0.2924 1.0209
vt 0.2924 1.0209
vt 0.1899 1.0191
vt 0.1899 1.0191
vt 0.0873 -0.0204
vt 0.1899 -0.0204
vt 0.1899 -0.0204
vt 0.2924 -0.0204
vt 0.2924 -0.0204
vt 0.3950 -0.0204
vt 0.3950 -0.0204
vt 0.4976 -0.0204
vt 0.4976 -0.0204
vt 0.6001 -0.0204
vt 0.6001 -0.0204
vt 0.7027 -0.0204
vt 0.7027 -0.0204
vt 0.8053 -0.0204
vt 0.8053 -0.0204
vn -1.0000 0.0000 0.0000
vn 0.0000 0.0000 -1.0000
vn 1.0000 0.0000 0.0000
vn 0.0000 0.0000 1.0000
vn 0.0000 -1.0000 0.0000
vn -0.1466 0.9892 0.0000
vn -0.0649 0.9979 0.0000
vn 0.0649 0.9979 0.0000
vn 0.1466 0.9892 0.0000
vn 0.3737 0.9275 0.0000
vn 0.4831 0.8756 0.0000
vn 0.3059 0.9521 0.0000
vn 0.0000 1.0000 0.0000
vn -0.3059 0.9521 0.0000
vn -0.4831 0.8756 0.0000
vn -0.3737 0.9275 0.0000
usemtl None
s 1
f 2/1/1 4/2/1 3/3/1 1/4/1
f 17/5/2 8/6/2 7/7/2 18/8/2
f 8/6/3 6/9/3 5/10/3 7/7/3
f 35/11/4 2/1/4 1/4/4 36/12/4
f 44/13/5 18/8/5 7/7/5 5/10/5
f 35/11/6 9/14/6 4/2/7 2/1/7
f 6/9/8 8/6/8 17/5/9 27/15/9
f 27/15/9 17/5/9 16/16/10 28/17/10
f 28/17/10 16/16/10 15/18/11 29/19/11
f 29/19/11 15/18/11 14/20/12 30/21/12
f 30/21/12 14/20/12 13/22/13 31/23/13
f 31/23/13 13/22/13 12/24/14 32/25/14
f 32/25/14 12/24/14 11/26/15 33/27/15
f 33/27/15 11/26/15 10/28/16 34/29/16
f 34/29/16 10/28/16 9/14/6 35/11/6
f 1/4/5 3/3/5 26/30/5 36/12/5
f 36/12/5 26/30/5 25/31/5 37/32/5
f 37/32/5 25/31/5 24/33/5 38/34/5
f 38/34/5 24/33/5 23/35/5 39/36/5
f 39/36/5 23/35/5 22/37/5 40/38/5
f 40/38/5 22/37/5 21/39/5 41/40/5
f 41/40/5 21/39/5 20/41/5 42/42/5
f 42/42/5 20/41/5 19/43/5 43/44/5
f 43/44/5 19/43/5 18/8/5 44/13/5
f 6/9/4 27/15/4 44/13/4 5/10/4
f 27/15/4 28/17/4 43/44/4 44/13/4
f 28/17/4 29/19/4 42/42/4 43/44/4
f 29/19/4 30/21/4 41/40/4 42/42/4
f 30/21/4 31/23/4 40/38/4 41/40/4
f 31/23/4 32/25/4 39/36/4 40/38/4
f 32/25/4 33/27/4 38/34/4 39/36/4
f 33/27/4 34/29/4 37/32/4 38/34/4
f 34/29/4 35/11/4 36/12/4 37/32/4
f 4/2/2 9/14/2 26/30/2 3/3/2
f 9/14/2 10/28/2 25/31/2 26/30/2
f 10/28/2 11/26/2 24/33/2 25/31/2
f 11/26/2 12/24/2 23/35/2 24/33/2
f 12/24/2 13/22/2 22/37/2 23/35/2
f 13/22/2 14/20/2 21/39/2 22/37/2
f 14/20/2 15/18/2 20/41/2 21/39/2
f 15/18/2 16/16/2 19/43/2 20/41/2
f 16/16/2 17/5/2 18/8/2 19/43/2
