# Blender v2.77 (sub 0) OBJ File: ''
# www.blender.org
mtllib table.mtl
o Cube_Cube.001
v -1.000000 1.000000 1.000000
v -1.000000 0.900000 1.000000
v -1.000000 1.000000 -1.000000
v -1.000000 0.900000 -1.000000
v 1.000000 1.000000 1.000000
v 1.000000 0.900000 1.000000
v 1.000000 1.000000 -1.000000
v 1.000000 0.900000 -1.000000
v -0.900000 -1.000000 -0.700000
v -0.900000 0.950000 -0.700000
v -0.900000 -1.000000 -0.900000
v -0.900000 0.950000 -0.900000
v -0.700000 -1.000000 -0.700000
v -0.700000 0.950000 -0.700000
v -0.700000 -1.000000 -0.900000
v -0.700000 0.950000 -0.900000
v 0.700000 -1.000000 -0.700000
v 0.700000 0.950000 -0.700000
v 0.700000 -1.000000 -0.900000
v 0.700000 0.950000 -0.900000
v 0.900000 -1.000000 -0.700000
v 0.900000 0.950000 -0.700000
v 0.900000 -1.000000 -0.900000
v 0.900000 0.950000 -0.900000
v -0.900000 -1.000000 0.900000
v -0.900000 0.950000 0.900000
v -0.900000 -1.000000 0.700000
v -0.900000 0.950000 0.700000
v -0.700000 -1.000000 0.900000
v -0.700000 0.950000 0.900000
v -0.700000 -1.000000 0.700000
v -0.700000 0.950000 0.700000
v 0.700000 -1.000000 0.900000
v 0.700000 0.950000 0.900000
v 0.700000 -1.000000 0.700000
v 0.700000 0.950000 0.700000
v 0.900000 -1.000000 0.900000
v 0.900000 0.950000 0.900000
v 0.900000 -1.000000 0.700000
v 0.900000 0.950000 0.700000
vn -1.0000 0.0000 0.0000
vn 0.0000 0.0000 -1.0000
vn 1.0000 0.0000 0.0000
vn 0.0000 0.0000 1.0000
vn 0.0000 1.0000 0.0000
vn 0.0000 -1.0000 0.0000
usemtl None
s off
f 2//1 1//1 3//1 4//1
f 4//2 3//2 7//2 8//2
f 8//3 7//3 5//3 6//3
f 6//4 5//4 1//4 2//4
f 1//5 5//5 7//5 3//5
f 6//6 2//6 4//6 8//6
f 10//1 12//1 11//1 9//1
f 12//2 16//2 15//2 11//2
f 16//3 14//3 13//3 15//3
f 14//4 10//4 9//4 13//4
f 9//6 11//6 15//6 13//6
f 14//5 16//5 12//5 10//5
f 18//1 20//1 19//1 17//1
f 20//2 24//2 23//2 19//2
f 24//3 22//3 21//3 23//3
f 22//4 18//4 17//4 21//4
f 17//6 19//6 23//6 21//6
f 22//5 24//5 20//5 18//5
f 26//1 28//1 27//1 25//1
f 28//2 32//2 31//2 27//2
f 32//3 30//3 29//3 31//3
f 30//4 26//4 25//4 29//4
f 25//6 27//6 31//6 29//6
f 30//5 32//5 28//5 26//5
f 34//1 36//1 35//1 33//1
f 36//2 40//2 39//2 35//2
f 40//3 38//3 37//3 39//3
f 38//4 34//4 33//4 37//4
f 33//6 35//6 39//6 37//6
f 38//5 40//5 36//5 34//5
