# Blender v2.77 (sub 0) OBJ File: ''
# www.blender.org
mtllib tombstone1.mtl
o Cube.001
v 0.100000 0.000000 -0.150000
v 0.100000 -0.000000 0.150000
v -0.100000 -0.000000 0.150000
v -0.100000 0.000000 -0.150000
v 0.100000 2.000000 -0.150000
v -0.100000 2.000000 -0.150000
v -0.100000 2.000000 0.150000
v 0.100000 2.000000 0.150000
v 0.300000 1.946271 0.150000
v 0.300000 1.946271 -0.150000
v -0.300000 -0.000000 0.150000
v -0.300000 0.000000 -0.150000
v -0.300000 1.946271 -0.150000
v -0.500000 0.000000 -0.150000
v -0.500000 1.806577 -0.150000
v -0.300000 1.946271 0.150000
v -0.500000 1.806577 0.150000
v -0.700000 1.597864 -0.150000
v -0.700000 1.597864 0.150000
v -0.500000 -0.000000 0.150000
v -0.700000 -0.000000 0.150000
v -0.700000 0.000000 -0.150000
v 0.300000 -0.000000 0.150000
v 0.500000 -0.000000 0.150000
v 0.500000 1.806577 0.150000
v 0.300000 0.000000 -0.150000
v 0.500000 1.806577 -0.150000
v 0.700000 1.597864 0.150000
v 0.700000 1.597864 -0.150000
v 0.500000 0.000000 -0.150000
v 0.700000 0.000000 -0.150000
v 0.700000 -0.000000 0.150000
vt 0.8218 0.9535
vt 0.8219 0.9535
vt 0.8139 0.9535
vt 0.8141 0.9535
vt 0.8218 0.9791
vt 0.8141 0.9791
vt 0.8139 0.9800
vt 0.8219 0.9800
vt 0.8299 0.9793
vt 0.8295 0.9784
vt 0.8060 0.9535
vt 0.8064 0.9535
vt 0.8064 0.9784
vt 0.7987 0.9535
vt 0.7987 0.9766
vt 0.8060 0.9793
vt 0.7980 0.9774
vt 0.7910 0.9739
vt 0.7900 0.9746
vt 0.7980 0.9535
vt 0.7900 0.9535
vt 0.7910 0.9535
vt 0.8299 0.9535
vt 0.8379 0.9535
vt 0.8379 0.9774
vt 0.8295 0.9535
vt 0.8372 0.9766
vt 0.8459 0.9746
vt 0.8449 0.9739
vt 0.8372 0.9535
vt 0.8449 0.9535
vt 0.8459 0.9535
vn 0.0000 -1.0000 -0.0000
vn 0.0000 1.0000 0.0000
vn 0.2594 0.9658 0.0000
vn 0.0000 -0.0000 1.0000
vn 0.0000 0.0000 -1.0000
vn -0.2594 0.9658 0.0000
vn -0.7220 0.6919 0.0000
vn -0.5726 0.8198 0.0000
vn -1.0000 0.0000 0.0000
vn 0.7220 0.6919 0.0000
vn 0.5726 0.8198 0.0000
vn 1.0000 -0.0000 0.0000
usemtl Material.001
s 1
f 1/1/1 2/2/1 3/3/1 4/4/1
f 5/5/2 6/6/2 7/7/2 8/8/2
f 5/5/3 8/8/3 9/9/3 10/10/3
f 2/2/4 8/8/4 7/7/4 3/3/4
f 4/4/1 3/3/1 11/11/1 12/12/1
f 5/5/5 1/1/5 4/4/5 6/6/5
f 13/13/5 12/12/5 14/14/5 15/15/5
f 3/3/4 7/7/4 16/16/4 11/11/4
f 7/7/6 6/6/6 13/13/6 16/16/6
f 6/6/5 4/4/5 12/12/5 13/13/5
f 17/17/7 15/15/7 18/18/7 19/19/7
f 12/12/1 11/11/1 20/20/1 14/14/1
f 16/16/8 13/13/8 15/15/8 17/17/8
f 11/11/4 16/16/4 17/17/4 20/20/4
f 21/21/9 19/19/9 18/18/9 22/22/9
f 20/20/4 17/17/4 19/19/4 21/21/4
f 15/15/5 14/14/5 22/22/5 18/18/5
f 14/14/1 20/20/1 21/21/1 22/22/1
f 9/9/4 23/23/4 24/24/4 25/25/4
f 8/8/4 2/2/4 23/23/4 9/9/4
f 1/1/5 5/5/5 10/10/5 26/26/5
f 2/2/1 1/1/1 26/26/1 23/23/1
f 27/27/10 25/25/10 28/28/10 29/29/10
f 23/23/1 26/26/1 30/30/1 24/24/1
f 10/10/11 9/9/11 25/25/11 27/27/11
f 26/26/5 10/10/5 27/27/5 30/30/5
f 31/31/12 29/29/12 28/28/12 32/32/12
f 30/30/5 27/27/5 29/29/5 31/31/5
f 25/25/4 24/24/4 32/32/4 28/28/4
f 24/24/1 30/30/1 31/31/1 32/32/1
