# Blender v2.77 (sub 0) OBJ File: ''
# www.blender.org
mtllib tombstone2.mtl
o Cube.002
v 0.300000 0.000000 -0.040000
v 0.300000 -0.000000 0.040000
v 0.200000 -0.000000 0.040000
v 0.200000 0.000000 -0.040000
v 0.300000 2.000000 -0.040000
v 0.130228 2.000000 -0.040000
v 0.158485 2.000000 0.040000
v 0.300000 2.000000 0.040000
v 0.100000 -0.000000 0.040000
v 0.100000 0.000000 -0.040000
v 0.941519 1.545083 -0.140000
v 0.941519 1.545083 -0.060000
v 0.937540 1.499599 -0.060000
v 0.937540 1.499600 -0.140000
v -1.046134 1.773531 -0.140000
v -1.056610 1.653787 -0.140000
v -1.056610 1.653786 -0.060000
v -1.046134 1.773530 -0.060000
v -0.660301 1.583634 -0.140000
v -0.660301 1.583634 -0.060000
v -1.062701 1.584174 -0.140000
v -1.062701 1.584174 -0.060000
v 0.928824 1.399980 -0.140000
v 0.928824 1.399980 -0.060000
v 0.920108 1.300361 -0.140000
v 0.911393 1.200741 -0.140001
v -1.080997 1.375053 -0.140001
v 0.920108 1.300360 -0.060000
v -1.080997 1.375052 -0.060001
v -1.089712 1.275433 -0.140001
v -1.089712 1.275433 -0.060001
v 0.911393 1.200741 -0.060001
v 0.908958 1.172905 -0.060001
v 0.908958 1.172905 -0.140001
v 0.100000 1.805870 -0.040000
v 0.000000 0.000000 -0.040000
v 0.000000 2.000000 -0.040000
v 0.100000 1.805870 0.040000
v 0.042182 2.000000 0.040000
v -0.100000 2.000000 -0.040001
v -0.100000 2.000000 0.039999
v 0.000000 -0.000000 0.040000
v -0.100000 0.000000 -0.040001
v -0.200000 0.000000 -0.040001
v -0.200000 2.000000 -0.040001
v -0.100000 -0.000000 0.039999
v -0.300000 0.000000 -0.040001
v -0.300000 2.000000 -0.040001
v -0.200000 -0.000000 0.039999
v -0.200000 2.000000 0.039999
v -0.300000 -0.000000 0.039999
v -0.300000 2.000000 0.039999
vt 0.8707 0.9290
vt 0.9279 0.9290
vt 0.9279 0.9862
vt 0.8707 0.9862
vt 0.8707 0.9290
vt 0.9279 0.9290
vt 0.9279 0.9862
vt 0.8707 0.9862
vt 0.9279 0.9290
vt 0.9279 0.9862
vt 0.8707 0.9862
vt 0.8707 0.9290
vt 0.9279 0.9290
vt 0.8707 0.9862
vt 0.8707 0.9290
vt 0.9279 0.9290
vt 0.9279 0.9862
vt 0.8707 0.9862
vt 0.9279 0.9290
vt 0.9279 0.9862
vt 0.8707 0.9862
vt 0.8707 0.9290
vt 0.9279 0.9290
vt 0.9279 0.9862
vt 0.8707 0.9862
vt 0.8707 0.9290
vt 0.9279 0.9290
vt 0.9279 0.9862
vt 0.8707 0.9862
vt 0.9279 0.9290
vt 0.9279 0.9862
vt 0.8707 0.9862
vt 0.8707 0.9290
vt 0.9279 0.9290
vt 0.8707 0.9862
vt 0.8707 0.9290
vt 0.9279 0.9862
vt 0.8707 0.9862
vt 0.9279 0.9290
vt 0.9279 0.9862
vt 0.8707 0.9862
vt 0.8707 0.9290
vt 0.9279 0.9290
vt 0.9279 0.9862
vt 0.8707 0.9862
vt 0.8707 0.9290
vt 0.9279 0.9290
vt 0.9279 0.9862
vt 0.8707 0.9862
vt 0.8707 0.9290
vt 0.9279 0.9290
vt 0.9279 0.9862
vt 0.8707 0.9862
vt 0.8707 0.9290
vt 0.9279 0.9290
vt 0.9279 0.9862
vt 0.8707 0.9862
vt 0.8707 0.9290
vt 0.9279 0.9290
vt 0.9279 0.9862
vt 0.8707 0.9862
vt 0.8707 0.9290
vt 0.9279 0.9290
vt 0.9279 0.9862
vt 0.8707 0.9862
vt 0.8707 0.9290
vt 0.9279 0.9290
vt 0.9279 0.9862
vt 0.8707 0.9862
vt 0.8707 0.9290
vt 0.9279 0.9290
vt 0.9279 0.9862
vt 0.8707 0.9862
vt 0.8707 0.9290
vt 0.9279 0.9290
vt 0.9279 0.9862
vt 0.8707 0.9862
vt 0.8707 0.9290
vt 0.9279 0.9290
vt 0.9279 0.9862
vt 0.8707 0.9862
vt 0.8707 0.9290
vt 0.9279 0.9290
vt 0.9279 0.9862
vt 0.8707 0.9862
vt 0.8707 0.9290
vt 0.9279 0.9290
vt 0.9279 0.9862
vt 0.8707 0.9862
vt 0.8707 0.9290
vt 0.9279 0.9290
vt 0.8707 0.9862
vt 0.8707 0.9290
vt 0.9279 0.9290
vt 0.9279 0.9862
vt 0.8707 0.9862
vt 0.8707 0.9290
vt 0.9279 0.9290
vt 0.9279 0.9862
vt 0.8707 0.9862
vt 0.8707 0.9290
vt 0.9279 0.9290
vt 0.9279 0.9862
vt 0.8707 0.9290
vt 0.9279 0.9290
vt 0.9279 0.9862
vt 0.8707 0.9862
vt 0.8707 0.9290
vt 0.9279 0.9290
vt 0.9279 0.9862
vt 0.8707 0.9862
vt 0.8707 0.9290
vt 0.9279 0.9862
vt 0.8707 0.9862
vt 0.8707 0.9290
vt 0.9279 0.9290
vt 0.9279 0.9862
vt 0.8707 0.9862
vt 0.8707 0.9290
vt 0.9279 0.9290
vt 0.9279 0.9862
vt 0.8707 0.9862
vt 0.8707 0.9290
vt 0.9279 0.9290
vt 0.9279 0.9862
vt 0.8707 0.9862
vt 0.8707 0.9290
vt 0.9279 0.9290
vt 0.9279 0.9862
vt 0.8707 0.9862
vt 0.8707 0.9290
vt 0.9279 0.9290
vt 0.9279 0.9862
vt 0.8707 0.9862
vt 0.8707 0.9290
vt 0.9279 0.9290
vt 0.9279 0.9862
vt 0.8707 0.9862
vt 0.8707 0.9290
vt 0.9279 0.9290
vt 0.9279 0.9862
vt 0.8707 0.9862
vt 0.8707 0.9290
vt 0.9279 0.9290
vt 0.9279 0.9862
vt 0.8707 0.9862
vt 0.8707 0.9290
vt 0.9279 0.9290
vt 0.9279 0.9862
vt 0.8707 0.9862
vt 0.8707 0.9290
vt 0.9279 0.9290
vt 0.9279 0.9862
vt 0.8707 0.9862
vt 0.8707 0.9290
vt 0.9279 0.9290
vt 0.9279 0.9862
vt 0.8707 0.9862
vt 0.8707 0.9290
vt 0.9279 0.9290
vt 0.9279 0.9862
vt 0.8707 0.9862
vt 0.8707 0.9290
vt 0.9279 0.9290
vt 0.9279 0.9862
vt 0.8707 0.9862
vt 0.8707 0.9290
vt 0.9279 0.9290
vt 0.9279 0.9862
vt 0.8707 0.9862
vt 0.8707 0.9290
vt 0.9279 0.9290
vt 0.9279 0.9862
vt 0.8707 0.9290
vt 0.9279 0.9290
vt 0.8707 0.9862
vt 0.8707 0.9290
vt 0.9279 0.9290
vt 0.9279 0.9862
vt 0.8707 0.9862
vn 0.0000 -1.0000 -0.0000
vn 0.0000 1.0000 0.0000
vn 1.0000 -0.0000 0.0000
vn 0.0000 -0.0000 1.0000
vn 0.0000 0.0000 -1.0000
vn 0.9962 -0.0871 -0.0000
vn 0.9962 -0.0872 -0.0000
vn -0.9962 0.0872 0.0000
vn 0.1142 0.9935 0.0000
vn -0.1743 -0.9847 -0.0000
vn 0.0013 1.0000 0.0000
vn -0.0512 -0.9987 0.0000
vn -0.9607 0.2195 0.1697
vn 0.8999 0.3658 -0.2373
vn -1.0000 0.0000 0.0000
usemtl Material.002
s 1
f 1/1/1 2/2/1 3/3/1 4/4/1
f 5/5/2 6/6/2 7/7/2 8/8/2
f 1/1/3 5/9/3 8/10/3 2/11/3
f 2/12/4 8/13/4 7/7/4 3/14/4
f 4/15/1 3/16/1 9/17/1 10/18/1
f 5/5/5 1/19/5 4/20/5 6/21/5
f 11/22/6 12/23/6 13/24/7 14/25/7
f 15/26/8 16/27/8 17/28/8 18/29/8
f 11/22/9 15/30/9 18/31/9 12/32/9
f 12/33/4 18/34/4 17/28/4 13/35/4
f 17/36/10 16/27/10 19/37/10 20/38/10
f 15/26/5 11/39/5 14/40/5 16/41/5
f 20/42/11 19/43/11 21/44/11 22/45/11
f 16/46/5 14/47/5 23/48/5 19/49/5
f 14/50/7 13/51/7 24/52/7 23/53/7
f 13/54/4 17/55/4 20/56/4 24/57/4
f 21/58/5 25/59/5 26/60/5 27/61/5
f 24/62/4 20/63/4 22/64/4 28/65/4
f 19/66/5 23/67/5 25/68/5 21/69/5
f 23/70/7 24/71/7 28/72/7 25/73/7
f 29/74/8 27/75/8 30/76/8 31/77/8
f 25/78/7 28/79/7 32/80/6 26/81/6
f 22/82/8 21/83/8 27/84/8 29/85/8
f 28/86/4 22/87/4 29/88/4 32/89/4
f 33/90/12 31/91/12 30/76/12 34/92/12
f 32/93/4 29/94/4 31/95/4 33/96/4
f 27/97/5 26/98/5 34/99/5 30/100/5
f 26/101/6 32/102/6 33/103/6 34/92/6
f 35/104/5 10/105/5 36/106/5 37/107/5
f 3/108/4 7/109/4 38/110/4 9/111/4
f 7/112/13 6/6/13 35/113/13 38/114/13
f 6/115/5 4/116/5 10/117/5 35/118/5
f 39/119/2 37/120/2 40/121/2 41/122/2
f 10/123/1 9/124/1 42/125/1 36/126/1
f 38/127/14 35/128/14 37/129/14 39/130/14
f 9/131/4 38/132/4 39/133/4 42/134/4
f 40/135/5 43/136/5 44/137/5 45/138/5
f 42/139/4 39/140/4 41/141/4 46/142/4
f 37/143/5 36/144/5 43/145/5 40/146/5
f 36/147/1 42/148/1 46/149/1 43/150/1
f 45/151/5 44/152/5 47/153/5 48/154/5
f 43/155/1 46/156/1 49/157/1 44/158/1
f 41/159/2 40/160/2 45/161/2 50/162/2
f 46/163/4 41/164/4 50/165/4 49/166/4
f 51/167/15 52/168/15 48/169/15 47/170/15
f 44/171/1 49/172/1 51/173/1 47/170/1
f 50/174/2 45/175/2 48/169/2 52/176/2
f 49/177/4 50/178/4 52/179/4 51/180/4
