# Blender v2.77 (sub 0) OBJ File: ''
# www.blender.org
mtllib toolHandle.mtl
o Cylinder
v 0.000000 -1.000000 -0.070000
v 0.000000 -0.500000 -0.060000
v 0.026788 -1.000000 -0.064672
v 0.022961 -0.500000 -0.055433
v 0.049498 -1.000000 -0.049497
v 0.042427 -0.500000 -0.042426
v 0.064672 -1.000000 -0.026788
v 0.055433 -0.500000 -0.022961
v 0.070000 -1.000000 0.000000
v 0.060000 -0.500000 0.000000
v 0.064672 -1.000000 0.026788
v 0.055433 -0.500000 0.022961
v 0.049498 -1.000000 0.049498
v 0.042427 -0.500000 0.042426
v 0.026788 -1.000000 0.064672
v 0.022961 -0.500000 0.055433
v 0.000000 -1.000000 0.070000
v 0.000000 -0.500000 0.060000
v -0.026788 -1.000000 0.064672
v -0.022961 -0.500000 0.055433
v -0.049497 -1.000000 0.049498
v -0.042426 -0.500000 0.042426
v -0.064671 -1.000000 0.026788
v -0.055433 -0.500000 0.022961
v -0.070000 -1.000000 0.000000
v -0.060000 -0.500000 0.000000
v -0.064671 -1.000000 -0.026788
v -0.055433 -0.500000 -0.022961
v -0.049497 -1.000000 -0.049497
v -0.042426 -0.500000 -0.042426
v -0.026788 -1.000000 -0.064672
v -0.022961 -0.500000 -0.055433
v 0.026788 0.000000 -0.064672
v 0.000000 0.000000 -0.070000
v 0.049498 0.000000 -0.049497
v 0.064672 0.000000 -0.026788
v 0.070000 0.000000 0.000000
v 0.064672 0.000000 0.026788
v 0.049498 0.000000 0.049498
v 0.026788 0.000000 0.064672
v 0.000000 0.000000 0.070000
v -0.026788 0.000000 0.064672
v -0.049497 0.000000 0.049498
v -0.064671 0.000000 0.026788
v -0.070000 0.000000 0.000000
v -0.064671 0.000000 -0.026788
v -0.049497 0.000000 -0.049497
v -0.026788 0.000000 -0.064672
v 0.030615 0.500000 -0.073910
v 0.000000 0.500000 -0.080000
v 0.056569 0.500000 -0.056569
v 0.073911 0.500000 -0.030615
v 0.080000 0.500000 0.000000
v 0.073911 0.500000 0.030615
v 0.056569 0.500000 0.056569
v 0.030615 0.500000 0.073910
v 0.000000 0.500000 0.080000
v -0.030614 0.500000 0.073910
v -0.056568 0.500000 0.056569
v -0.073910 0.500000 0.030615
v -0.080000 0.500000 0.000000
v -0.073910 0.500000 -0.030615
v -0.056568 0.500000 -0.056569
v -0.030614 0.500000 -0.073910
v 0.038269 1.000000 -0.092388
v 0.000000 1.000000 -0.100000
v 0.070711 1.000000 -0.070711
v 0.092388 1.000000 -0.038268
v 0.100001 1.000000 0.000000
v 0.092388 1.000000 0.038268
v 0.070711 1.000000 0.070711
v 0.038269 1.000000 0.092388
v 0.000000 1.000000 0.100000
v -0.038268 1.000000 0.092388
v -0.070710 1.000000 0.070711
v -0.092387 1.000000 0.038268
v -0.100000 1.000000 0.000000
v -0.092387 1.000000 -0.038268
v -0.070710 1.000000 -0.070711
v -0.038268 1.000000 -0.092388
vt 1.0000 -0.0000
vt 1.0000 0.2500
vt 0.9375 0.2500
vt 0.9375 -0.0000
vt 0.8750 0.2500
vt 0.8750 -0.0000
vt 0.8125 0.2500
vt 0.8125 -0.0000
vt 0.7500 0.2500
vt 0.7500 -0.0000
vt 0.6875 0.2500
vt 0.6875 -0.0000
vt 0.6250 0.2500
vt 0.6250 -0.0000
vt 0.5625 0.2500
vt 0.5625 -0.0000
vt 0.5000 0.2500
vt 0.5000 -0.0000
vt 0.4375 0.2500
vt 0.4375 -0.0000
vt 0.3750 0.2500
vt 0.3750 -0.0000
vt 0.3125 0.2500
vt 0.3125 -0.0000
vt 0.2500 0.2500
vt 0.2500 -0.0000
vt 0.1875 0.2500
vt 0.1875 -0.0000
vt 0.1250 0.2500
vt 0.1250 -0.0000
vt 0.7500 0.5000
vt 0.6875 0.5000
vt 0.0625 0.2500
vt 0.0625 -0.0000
vt 1.0625 -0.0000
vt 1.0625 0.2500
vt 0.0448 0.9055
vt 0.0518 0.9026
vt 0.0593 0.9026
vt 0.0662 0.9055
vt 0.0715 0.9108
vt 0.0744 0.9178
vt 0.0744 0.9253
vt 0.0715 0.9322
vt 0.0662 0.9375
vt 0.0593 0.9404
vt 0.0518 0.9404
vt 0.0448 0.9375
vt 0.0395 0.9322
vt 0.0367 0.9253
vt 0.0367 0.9178
vt 0.0395 0.9108
vt 0.3125 0.5000
vt 0.3750 0.5000
vt 0.3750 0.7500
vt 0.3125 0.7500
vt 0.4375 0.5000
vt 0.1250 0.5000
vt 0.0625 0.5000
vt 0.8750 0.5000
vt 0.8125 0.5000
vt 0.5625 0.5000
vt 0.5000 0.5000
vt 1.0000 0.5000
vt 0.9375 0.5000
vt 0.2500 0.5000
vt 0.1875 0.5000
vt 0.6250 0.5000
vt 1.0625 0.5000
vt 0.9375 0.7500
vt 1.0000 0.7500
vt 1.0000 1.0000
vt 0.9375 1.0000
vt 0.8125 0.7500
vt 0.7500 0.7500
vt 0.2500 0.7500
vt 0.6875 0.7500
vt 0.1875 0.7500
vt 0.6250 0.7500
vt 0.1250 0.7500
vt 0.5625 0.7500
vt 0.0625 0.7500
vt 0.5000 0.7500
vt 1.0625 0.7500
vt 0.4375 0.7500
vt 0.8750 0.7500
vt 0.0690 0.9026
vt 0.0583 0.9026
vt 0.0484 0.8985
vt 0.0408 0.8909
vt 0.0367 0.8810
vt 0.0367 0.8703
vt 0.0408 0.8604
vt 0.0484 0.8528
vt 0.0583 0.8487
vt 0.0690 0.8487
vt 0.0789 0.8528
vt 0.0865 0.8604
vt 0.0906 0.8703
vt 0.0906 0.8810
vt 0.0865 0.8909
vt 0.0789 0.8985
vt 1.0625 1.0000
vt 0.5000 1.0000
vt 0.4375 1.0000
vt 0.8750 1.0000
vt 0.3750 1.0000
vt 0.8125 1.0000
vt 0.3125 1.0000
vt 0.7500 1.0000
vt 0.2500 1.0000
vt 0.6875 1.0000
vt 0.1875 1.0000
vt 0.6250 1.0000
vt 0.1250 1.0000
vt 0.5625 1.0000
vt 0.0625 1.0000
vn 0.0000 0.0200 -0.9998
vn 0.0000 0.0000 -1.0000
vn 0.3827 0.0000 -0.9239
vn 0.3826 0.0200 -0.9237
vn 0.7071 0.0000 -0.7071
vn 0.7070 0.0200 -0.7070
vn 0.9239 0.0000 -0.3827
vn 0.9237 0.0200 -0.3826
vn 1.0000 0.0000 0.0000
vn 0.9998 0.0200 -0.0000
vn 0.9239 0.0000 0.3827
vn 0.9237 0.0200 0.3826
vn 0.7071 0.0000 0.7071
vn 0.7070 0.0200 0.7070
vn 0.3827 0.0000 0.9239
vn 0.3826 0.0200 0.9237
vn 0.0000 0.0000 1.0000
vn -0.0000 0.0200 0.9998
vn -0.3827 0.0000 0.9239
vn -0.3826 0.0200 0.9237
vn -0.7071 0.0000 0.7071
vn -0.7070 0.0200 0.7070
vn -0.9239 0.0000 0.3827
vn -0.9237 0.0200 0.3826
vn -1.0000 0.0000 0.0000
vn -0.9998 0.0200 0.0000
vn -0.9239 0.0000 -0.3827
vn -0.9237 0.0200 -0.3826
vn -0.7071 0.0000 -0.7071
vn -0.7070 0.0200 -0.7070
vn 0.9998 -0.0200 0.0000
vn 0.9237 -0.0200 0.3826
vn -0.3827 0.0000 -0.9239
vn -0.3826 0.0200 -0.9237
vn 0.0000 -1.0000 0.0000
vn -0.9237 -0.0200 0.3826
vn -0.7070 -0.0200 0.7070
vn -0.7068 -0.0300 0.7068
vn -0.9235 -0.0300 0.3825
vn -0.3826 -0.0200 0.9237
vn -0.7070 -0.0200 -0.7070
vn -0.3826 -0.0200 -0.9237
vn 0.7070 -0.0200 -0.7070
vn 0.9237 -0.0200 -0.3826
vn 0.3826 -0.0200 0.9237
vn 0.0000 -0.0200 0.9998
vn 0.0000 -0.0200 -0.9998
vn 0.3826 -0.0200 -0.9237
vn -0.9998 -0.0200 0.0000
vn -0.9237 -0.0200 -0.3826
vn 0.7070 -0.0200 0.7070
vn 0.3825 -0.0300 -0.9235
vn 0.0000 -0.0300 -0.9995
vn 0.0000 -0.0400 -0.9992
vn 0.3824 -0.0400 -0.9231
vn 0.9235 -0.0300 -0.3825
vn 0.9995 -0.0300 0.0000
vn -0.9995 -0.0300 0.0000
vn 0.9235 -0.0300 0.3825
vn -0.9235 -0.0300 -0.3825
vn 0.7068 -0.0300 0.7068
vn -0.7068 -0.0300 -0.7068
vn 0.3825 -0.0300 0.9235
vn -0.3825 -0.0300 -0.9235
vn 0.0000 -0.0300 0.9995
vn -0.3825 -0.0300 0.9235
vn 0.7068 -0.0300 -0.7068
vn 0.0000 1.0000 0.0000
vn -0.3824 -0.0400 -0.9231
vn 0.0000 -0.0400 0.9992
vn -0.3824 -0.0400 0.9231
vn 0.7065 -0.0400 -0.7065
vn -0.7065 -0.0400 0.7065
vn 0.9231 -0.0400 -0.3824
vn -0.9231 -0.0400 0.3824
vn 0.9992 -0.0400 -0.0000
vn -0.9992 -0.0400 0.0000
vn 0.9231 -0.0400 0.3824
vn -0.9231 -0.0400 -0.3824
vn 0.7065 -0.0400 0.7065
vn -0.7065 -0.0400 -0.7065
vn 0.3824 -0.0400 0.9231
usemtl None
s 1
f 1/1/1 2/2/2 4/3/3 3/4/4
f 3/4/4 4/3/3 6/5/5 5/6/6
f 5/6/6 6/5/5 8/7/7 7/8/8
f 7/8/8 8/7/7 10/9/9 9/10/10
f 9/10/10 10/9/9 12/11/11 11/12/12
f 11/12/12 12/11/11 14/13/13 13/14/14
f 13/14/14 14/13/13 16/15/15 15/16/16
f 15/16/16 16/15/15 18/17/17 17/18/18
f 17/18/18 18/17/17 20/19/19 19/20/20
f 19/20/20 20/19/19 22/21/21 21/22/22
f 21/22/22 22/21/21 24/23/23 23/24/24
f 23/24/24 24/23/23 26/25/25 25/26/26
f 25/26/26 26/25/25 28/27/27 27/28/28
f 27/28/28 28/27/27 30/29/29 29/30/30
f 12/11/11 10/9/9 37/31/31 38/32/32
f 29/30/30 30/29/29 32/33/33 31/34/34
f 31/35/34 32/36/33 2/2/2 1/1/1
f 1/37/35 3/38/35 5/39/35 7/40/35 9/41/35 11/42/35 13/43/35 15/44/35 17/45/35 19/46/35 21/47/35 23/48/35 25/49/35 27/50/35 29/51/35 31/52/35
f 44/53/36 43/54/37 59/55/38 60/56/39
f 22/21/21 20/19/19 42/57/40 43/54/37
f 32/33/33 30/29/29 47/58/41 48/59/42
f 8/7/7 6/5/5 35/60/43 36/61/44
f 18/17/17 16/15/15 40/62/45 41/63/46
f 4/3/3 2/2/2 34/64/47 33/65/48
f 28/27/27 26/25/25 45/66/49 46/67/50
f 14/13/13 12/11/11 38/32/32 39/68/51
f 24/23/23 22/21/21 43/54/37 44/53/36
f 2/2/2 32/36/33 48/69/42 34/64/47
f 10/9/9 8/7/7 36/61/44 37/31/31
f 20/19/19 18/17/17 41/63/46 42/57/40
f 30/29/29 28/27/27 46/67/50 47/58/41
f 6/5/5 4/3/3 33/65/48 35/60/43
f 16/15/15 14/13/13 39/68/51 40/62/45
f 26/25/25 24/23/23 44/53/36 45/66/49
f 49/70/52 50/71/53 66/72/54 65/73/55
f 37/31/31 36/61/44 52/74/56 53/75/57
f 45/66/49 44/53/36 60/56/39 61/76/58
f 38/32/32 37/31/31 53/75/57 54/77/59
f 46/67/50 45/66/49 61/76/58 62/78/60
f 39/68/51 38/32/32 54/77/59 55/79/61
f 47/58/41 46/67/50 62/78/60 63/80/62
f 40/62/45 39/68/51 55/79/61 56/81/63
f 48/59/42 47/58/41 63/80/62 64/82/64
f 41/63/46 40/62/45 56/81/63 57/83/65
f 33/65/48 34/64/47 50/71/53 49/70/52
f 34/64/47 48/69/42 64/84/64 50/71/53
f 42/57/40 41/63/46 57/83/65 58/85/66
f 35/60/43 33/65/48 49/70/52 51/86/67
f 43/54/37 42/57/40 58/85/66 59/55/38
f 36/61/44 35/60/43 51/86/67 52/74/56
f 65/87/68 66/88/68 80/89/68 79/90/68 78/91/68 77/92/68 76/93/68 75/94/68 74/95/68 73/96/68 72/97/68 71/98/68 70/99/68 69/100/68 68/101/68 67/102/68
f 50/71/53 64/84/64 80/103/69 66/72/54
f 58/85/66 57/83/65 73/104/70 74/105/71
f 51/86/67 49/70/52 65/73/55 67/106/72
f 59/55/38 58/85/66 74/105/71 75/107/73
f 52/74/56 51/86/67 67/106/72 68/108/74
f 60/56/39 59/55/38 75/107/73 76/109/75
f 53/75/57 52/74/56 68/108/74 69/110/76
f 61/76/58 60/56/39 76/109/75 77/111/77
f 54/77/59 53/75/57 69/110/76 70/112/78
f 62/78/60 61/76/58 77/111/77 78/113/79
f 55/79/61 54/77/59 70/112/78 71/114/80
f 63/80/62 62/78/60 78/113/79 79/115/81
f 56/81/63 55/79/61 71/114/80 72/116/82
f 64/82/64 63/80/62 79/115/81 80/117/69
f 57/83/65 56/81/63 72/116/82 73/104/70
